<svg id="Layer_1" data-name="Layer 1" xmlns="http://www.w3.org/2000/svg" xmlns:xlink="http://www.w3.org/1999/xlink" viewBox="0 0 485.15 601.68"><defs><style>.cls-1{fill:url(#linear-gradient);}</style><linearGradient id="linear-gradient" x1="-1330.27" y1="872.73" x2="-987.6" y2="872.73" gradientTransform="matrix(0.94, -0.94, -0.84, -0.84, 2077.55, -121.68)" gradientUnits="userSpaceOnUse"><stop offset="0" stop-color="#aa51b9"/><stop offset="1" stop-color="#cf5965"/></linearGradient></defs><title>xander-Logo-Icon</title><g id="Layer_2" data-name="Layer 2"><path class="cls-1" d="M88.2,395.2c72.1,72.1,202.9,58.3,292-30.8S483.1,144.5,411,72.4,208.1,14,119,103.2,16,323.1,88.2,395.2Z" transform="translate(-41.95 -26.16)"/></g><path d="M276.5,119.2c-14.1,11.1-26.5,19.3-119,78.5-42,26.9-67,45.8-86.5,65.3-15,14.9-19.1,21.2-22.9,35s-2,28,6,46.2c5.6,12.8,17.4,31,19.8,30.6.8-.2,2.2-2.6,3.1-5.3,5.9-17.4,19.5-36.1,44.5-61.1,20.9-21,38.7-36.3,77.9-66.9,12-9.4,26.6-20.9,32.4-25.7s10.8-8.5,11-8.4,2,7,4.2,15.2,4.9,17.6,5.9,20.9,3.2,10,4.6,15c3.9,12.8,25.5,74.5,38.1,108.6l2.8,7.6-5.4,6.4c-19.1,22.2-30.4,34.4-51.9,55.9-22.4,22.3-50,48.2-87.8,82.3-25.6,23.1-31.6,30-32.8,38-1.2,8.3,1.7,16.1,13,34.2,3.4,5.5,7.2,11.9,8.4,14.2,2,4,5.7,16.3,6.3,21.2.3,2.1,1.5,1.3,12.8-8.5,20.3-17.5,32.1-28.4,58.9-54.9A1323.37,1323.37,0,0,0,317,457.2c4.6-5.6,8.7-10.2,9-10.2s4.7,10.5,9.9,23.3c11,26.9,27.5,66,36.7,86.4,22.5,50.4,33.1,63.2,52.5,64.1,13.1.7,23.2-3.4,40.6-16.1,5.6-4.1,13.1-8.7,16.7-10.2l6.5-2.7-5.1-7.2C445.3,530.2,396.6,446,375.2,396.8l-5.1-11.7,16.3-22.8c34.4-48.2,59.8-86.6,108.2-163.8,39.4-62.8,37-57.2,23.9-57.4-8.5-.1-15.3,1.4-35,7.9-9.3,3-17.8,5.1-22.5,5.5l-7.5.7-10,16.1c-8.5,13.6-44.4,68.1-54.5,82.6-8.6,12.5-29.9,41.8-37,51l-8,10.4-1.1-2.9c-3.8-10-22.1-65.6-27.9-84.9-12.4-41.5-22.3-80.4-26.2-103.1l-2.3-13.1Z" transform="translate(-41.95 -26.16)"/></svg>