<?xml version="1.0" encoding="utf-8"?>
<!-- Generator: Adobe Illustrator 22.0.1, SVG Export Plug-In . SVG Version: 6.00 Build 0)  -->
<svg version="1.1" id="Layer_1" xmlns="http://www.w3.org/2000/svg" xmlns:xlink="http://www.w3.org/1999/xlink" x="0px" y="0px"
	 viewBox="0 0 143.8 144" style="enable-background:new 0 0 143.8 144;" xml:space="preserve">
<style type="text/css">
	.st0{fill:#E53838;}
</style>
<g>
	<path class="st0" d="M75.9,27.2c0-0.1,0-0.2-0.1-0.4c-0.2-3.2-1.4-6.1-1.7-9.3c-0.3-3.2-0.2-6.5-0.5-9.8c0-0.2-0.1-0.5-0.1-0.7
		c0-0.2,0-0.4,0-0.6c0-0.7-0.2-1.6-0.8-1.2c-1,0.7-0.4,4.4-0.4,5.3c0,0,0,0.1,0,0.1c0,0,0,0,0,0c0.1,2.2,0.3,4.2-0.1,6.3
		c-0.2,2.4-0.2,4.7-1.1,6.9c0,0.1,0,0.1,0,0.2c0,1.1-0.5,2.4-0.3,3.5c0.1,0.8,0.6,1.5,1,2.1c0,0.1,0,0.1,0.1,0.2c0,0,0,0,0,0
		c0.3,0.6,0.4,1.3,0.3,1.8c0,0.1,0,0.2,0,0.3c0,0.1,0,0.1,0,0.2c0.1,4.5,0.4,9,0.5,13.5c0,0.2,0,0.4-0.1,0.6c0.1,0.5,0.1,0.9,0,1.4
		c-0.1,0.7-0.3,1.5-0.4,2.2c-0.3,4.7-1.3,9.3-1.8,14c-0.1,0.6-0.3,1.2-0.6,1.6c0,0.5-0.1,0.9-0.4,1.3c-1.2,1.6-1.4,3.5-1.4,5.4
		c0.2,0.7,0.5,1.4,1.1,2.1c1.2,1.7,2.2,3.1,2.3,5.2c0,0.5,0,0.8-0.2,1.2c0.1,0.3,0.3,0.5,0.4,0.7c0.2,0,0.4-0.1,0.6-0.1
		c0.1,0,0.1,0,0.2,0c0.1-0.1,0.2-0.3,0.3-0.4c0-0.1-0.1-0.3-0.1-0.5c-0.2-0.3-0.3-0.6-0.3-0.9c-0.1-0.2-0.1-0.5-0.1-0.7
		c-0.2-0.6-0.1-1.4,0.4-2.1c0.7-1.1,2-2.3,2.5-3.6c0.7-1.7-0.2-3.3-0.8-4.9c-1.1-2.7-1.6-5.3-1.3-8.2l1.3-9.1
		c0.1-1.3,0.2-2.6,0.2-3.8c0-0.5,0-1.1-0.1-1.6c-0.1-2.2-0.4-4.4-0.5-6.6c-0.1-0.3-0.2-0.6-0.2-1c0-3.7,0-7.1,1.7-10.4
		C75.6,27.6,75.8,27.4,75.9,27.2z M73.8,69.4c1.3,1,1.6,2.9,0.7,4.2s-3.1,1.7-4.2,0.7c-1.4-1-1.7-3-0.7-4.2
		C70.4,68.8,72.5,68.5,73.8,69.4z"/>
</g>
</svg>
