<?xml version="1.0" encoding="utf-8"?>
<!-- Generator: Adobe Illustrator 22.0.1, SVG Export Plug-In . SVG Version: 6.00 Build 0)  -->
<svg version="1.1" id="Layer_1" xmlns="http://www.w3.org/2000/svg" xmlns:xlink="http://www.w3.org/1999/xlink" x="0px" y="0px"
	 viewBox="0 0 143.8 144" style="enable-background:new 0 0 143.8 144;" xml:space="preserve">
<g>
	<path d="M75.1,2.7c-0.6,0.8-1.7,1-2.5,0.5c-0.4-0.3-0.6-0.7-0.7-1.1l0.2,13.4l-0.1,1.1L71.2,19l0,0c-0.4,0.9-0.7,1.8-1.2,2.6
		c-0.4,0.7-0.8,1.5-1.1,2.3c-0.9,2.4-0.7,3.3,1.1,5.1c0.7,0.7,1.2,1.8,1.6,2.9c0.3,0.9-0.1,1.9-1.1,2.3c-1.1,0.5-1.4,1.3-1.4,2.3
		c0.3,3.2,0.5,6.4,1,9.5c0.8,5.4,1.4,10.8,0.2,16.2c-0.5,2.3-1.1,4.5-2.1,6.5c-0.5,1-0.9,2.2-1,3.3c-0.1,0.8,0,1.6,0.2,2.3
		c0.7,0.9,1.5,1.6,2.2,2.6c0.1,0.2,0.2,0.4,0.3,0.6c0.3,0.6,0.5,1.3,0.7,2.3c0.1,0.7-0.5,1.5-0.9,2.3c0.6,0.9,0.6,1.4-0.5,3
		c-1.2,1.7-1,2.9,0.5,3.9c1.5,0.9,3.2,0.3,4.1-1.2c0.5-1,0.7-1.9-0.4-2.7c-1.4-1.2-1.5-2.2-0.2-3.9c-1.6-0.8-1-2.1-0.5-3.4
		c0.3-0.9,0.7-1.8,1.5-2.4c0.7-0.9,1.5-1.7,2-2.8c0.8-1.7,0.4-3.3-0.9-4.5c-0.5-0.2-0.8-0.6-1.1-1.4c-1.1-2.5-1-4.9-0.9-7.5
		c0.1-5.4,1.3-10.5,2.6-15.5c0.5-2.2,0.9-4.5,1.2-6.6c0.2-1.2-0.2-2.2-1.4-2.8c-1.1-0.5-1.5-1.5-1-2.6c0.6-1.3,1.2-2.5,2.1-3.5
		c1.9-2.1,2.1-3.1,0.7-5.5c-0.7-1.2-1.4-2.4-2.2-3.9l-1.1-4.1c0-1-0.3-2.1-0.2-3.1l1-9.5C75.2,2.3,75.2,2.5,75.1,2.7z M74.5,73.6
		c-0.9,1.3-3.1,1.7-4.2,0.7c-1.4-1-1.7-3-0.7-4.2c0.9-1.3,3-1.6,4.3-0.7C75.1,70.4,75.4,72.3,74.5,73.6z"/>
	<ellipse transform="matrix(0.5617 -0.8273 0.8273 0.5617 30.6389 61.7508)" cx="73.6" cy="2" rx="1.7" ry="1.7"/>
</g>
</svg>
