<?xml version="1.0" encoding="utf-8"?>
<!-- Generator: Adobe Illustrator 22.0.1, SVG Export Plug-In . SVG Version: 6.00 Build 0)  -->
<svg version="1.1" id="Layer_1" xmlns="http://www.w3.org/2000/svg" xmlns:xlink="http://www.w3.org/1999/xlink" x="0px" y="0px"
	 viewBox="0 0 312.2 312.2" style="enable-background:new 0 0 312.2 312.2;" xml:space="preserve">
<title>Vintage-Clock</title>
<path d="M158.8,312h-4.1c-4.7-2.7-5.9-7.1-5.7-12.1c0,0-0.2,0-0.2,0.1c-2.2,1.7-4.4,3.6-6.7,5.2c-2.1,1.4-4.4,2.3-6.9,2.6
	c-1.8,0.3-3.7,0.1-5.4-0.6c0.4-0.1,0.7-0.1,1-0.2c1.2-0.5,2.4-1,3.6-1.7c0.6-0.4,0.9-1.3,1.3-2c-0.7-0.4-1.4-0.6-2.2-0.8
	c-1.6-0.2-3.2-0.1-4.8-0.3c-3.2-0.2-5.6-2.9-5.4-6.1V296c0.1-0.8,0.4-1.6,0.8-2.3c0.7,0.3,1.3,0.6,1.9,1c0.1,0.1,0.2,0.1,0.3,0.2
	c2.7,2.5,6.6,3,9.8,1.4c0.7-0.4,1.3-1,1.8-1.6c-0.6-0.4-1.1-0.9-1.7-1.3c-0.1,0-0.1-0.1-0.2-0.1c-2.6-1.1-3.9-4-2.9-6.6
	c0.3-0.5,0.6-1,1-1.4c0.4,0.3,0.8,0.6,1.1,1c0.8,1.4,2.1,2.4,3.6,2.7c2.7,0.5,5.5-0.5,7.2-2.8c2-2.7,2.8-5.8,3.4-9
	c-0.1,0.1-0.2,0.1-0.3,0.1l-0.3,0.3c-3.2,4-8.2,6.2-13.4,5.9c-4,0.1-7.6-2.7-8.4-6.7c-0.9-3.3,0.4-6,3.6-7.5
	c2.5-1.2,3.9-0.7,5.2,1.7l0.3,0.6c0.6,1.2,2,1.8,3.3,1.4c2.4-0.5,4.4-2.5,4.9-4.9c0.9-4.3-1.3-8.7-5.3-10.6c-2.4-1-5.1-0.4-6.9,1.5
	c-1.6,2-1.4,4.9,0.4,6.7c0.2,0.3,0.4,0.7,0.6,1.1c-1,0.2-1.9,0.3-2.9,0.3c-2.5-0.3-3.8-2-4.5-4.3c-0.3-1.1-0.6-2.2-1-3.2
	c-0.5-1.3-1.3-1.4-2.1-0.3c-1.5,2-2.1,4.6-1.5,7c0.6,2.5,1.7,3.8,4.5,3.7c1.1-0.1,1.3,0.5,0.9,1.5c-0.8,1.4-2.4,2.2-4,2
	c-1.6-0.3-3-1.3-3.6-2.8c-0.2-0.4-0.5-0.7-0.8-1.2c-0.8,1.5-0.8,3.2-0.2,4.8c1.1,3.3,3.6,4.3,6.9,3.7c-0.2,1.2-1.2,2.2-2.4,2.4
	c-1.9,0.6-2.2,1.2-1.5,3.1c0.7,1.7,2.1,3.1,3.9,3.8c0.3,0.1,0.5,0.4,0.8,0.7c-0.2,0.2-0.4,0.6-0.7,0.7c-1.6,0.7-3.3,0.9-5,0.5
	c-2.8-0.7-4-2.9-5-5.4c-0.2-0.6-0.5-1.2-0.7-1.8h-0.4c-0.2,0.3-0.4,0.7-0.5,1.1c-0.2,0.9-0.3,1.8-0.5,2.7c-0.1,0.4-0.4,0.8-0.8,0.9
	c-0.2,0.1-0.7-0.3-0.9-0.6c-0.5-0.6-0.9-1.3-1.2-2.1c-1.4-3.4-1.1-6.7,0-10.1c0.3-0.8,0.5-1.6,0.7-2.3c-0.1-0.1-0.2-0.1-0.3-0.2
	c-0.3,0.2-0.5,0.4-0.7,0.7c-0.6,0.6-1.1,1.3-1.7,1.9c-0.3,0.3-1,0.7-1.2,0.5c-0.4-0.2-0.5-0.8-0.7-1.3c-0.1-0.5-0.1-0.9-0.1-1.4
	c-0.6,0.4-1.2,0.7-1.8,0.9c-0.6,0.3-1.1,0.6-1.7,0.9c-7.3,3.6-15.8,4-23.4,0.9c-6.1-2.3-10.6-6.1-12.4-12.7
	c-0.5-1.8-0.8-3.6-1.3-5.3c-0.2-0.6-0.8-1.4-1.3-1.5s-1.2,0.6-1.7,1s-0.9,1.1-1.6,1.9c-0.2-0.4-0.3-0.9-0.3-1.3
	c0.2-2.4,1.3-5.4,4.4-6c1.4-0.3,2.5-1.4,2.7-2.9c0.2-1.2,0.5-2.4,0.7-3.5c-0.9,0.3-1.8,0.5-2.7,0.6c-1.8,0-3.3,1.3-3.7,3
	c-0.5,2.1-2.3,3.7-4.5,3.9c-0.8,0.1-1.6,0.2-2.4,0.2c0-0.2-0.1-0.3-0.1-0.5c0.3-0.3,0.6-0.5,0.9-0.8c0.5-0.4,1-0.9,1.5-1.4
	c0.7-0.7,0.5-1.3-0.3-1.8c-0.4-0.3-0.9-0.5-1.4-0.6c-1.9-0.5-3.7-0.9-5.6-1.4c-3.6-1-6.8-3.2-8.9-6.3c-5.9-9.1-6.8-18.7-2.3-28.7
	c0.6-1.3,1.3-2.5,1.9-3.9c-0.7-0.1-1.3-0.1-1.9-0.2c-0.9-0.2-1-0.7-0.5-1.4c0.3-0.3,0.6-0.6,0.9-0.9c0.6-0.6,1.3-1.2,2-1.8
	c-0.1-0.1-0.1-0.2-0.2-0.3c-0.4,0.1-0.9,0.2-1.3,0.4c-2.4,0.9-4.9,1.4-7.5,1.3c-1.9-0.1-3.8-0.7-5.4-1.8c-0.4-0.4-0.7-0.8-0.9-1.3
	c0.4-0.2,0.9-0.5,1.3-0.7c0.7-0.2,1.4-0.1,2-0.3s1.2-0.5,1.7-0.8c-1.9-0.9-3.6-1.5-5.1-2.4c-1.5-1-2.5-2.7-2.5-4.5
	c-0.1-1.7-0.1-3.5,1.4-5c0.3,0.6,0.6,1.1,0.8,1.5c0.7,1.7,2.2,2.9,3.9,3.5c1.8,0.6,2.1,0.3,2.7-1.5c0.2-1.1,1-2,2.1-2.3
	c0.2,1.5,0.4,3,0.8,4.5c0.6,1.5,2,2.1,3.5,2.5c1.5,0.6,3.1,0.4,4.5-0.4c-0.7-0.4-1.2-0.7-1.7-1c-2.7-1.6-3.2-5-0.9-6.9
	c0.5-0.3,1-0.5,1.6-0.6c0.2,0.5,0.4,1,0.4,1.5c-0.1,1.5,0.7,2.9,2.1,3.5c2.7,1.3,5.9,1,8.4-0.8c0.4-0.3,0.9-0.9,0.8-1.3
	s-0.7-0.8-1.2-1c-1.1-0.4-2.2-0.6-3.3-1c-3.2-1.3-4.2-3.2-3.8-6.1c0.1-1.1,0.6-1.2,1.4-0.5c1.4,1.3,3.4,1.7,5.2,1s3-2.3,3.2-4.2
	c0.5-3.3-1.2-6.3-4.8-8c-3.4-1.7-8.1-1.7-10.6,2.7c-1.1,2-0.7,3.8,1.3,4.9c0.6,0.3,1.1,0.6,1.6,1c0.4,0.4,0.7,0.9,0.8,1.5
	c0.4,2.6-2.4,6.2-5.1,6.5c-4.6,0.5-8.8-2.7-9.5-7.2c-0.9-5.4,1.1-10.8,5.2-14.4c0.3-0.3,0.6-0.5,1.2-1c-3,0.3-6,1.3-8.6,2.8
	c-4,2.4-5.2,9.2-0.3,11.6c1,0.5,0.8,1.2-0.3,1.7c-2.5,1.1-5.5,0.1-6.8-2.4c-0.3-0.5-0.5-1-0.7-1.5c-0.5-1-1.1-1.1-1.8-0.2
	c-0.4,0.6-0.8,1.2-1,1.9c-1.3,3.5-0.4,7.4,2.3,9.9c1,1,0.8,1.8-0.6,2.1c-1.7,0.4-3.6,0-5-1.1c-1.7-1.2-2.2-3-2.4-4.9
	c-0.2-1.7-0.2-3.4-0.3-5c0-0.5-0.3-0.9-0.7-1.2c-0.5,0-1,0.2-1.3,0.5c-0.7,0.9-1.4,1.9-2,2.9c-0.3,0.8-0.5,1.6-0.7,2.4
	c-0.7-2-0.9-4.1-0.5-6.2c0.7-3.6,2.7-6.6,4.9-9.5c1.1-1.5,2.5-2.9,3.7-4.3c-6.2,0.8-10.9-1.3-13.1-5.8v-2.1
	c2.6-4.9,7.1-5.9,12.1-5.8c-1.2-1.5-2.4-2.9-3.5-4.4c-2.3-3.1-4.2-6.4-4.4-10.3c-0.2-1.5,0.1-3,0.6-4.4c0.2,1.9,1,3.7,2.3,5.1
	c0.5,0.4,1,0.6,1.6,0.8c0.3-0.6,0.6-1.2,0.8-1.8c0.2-1.5,0.1-3.1,0.3-4.7c0.4-4.2,3.9-6.9,7.6-5.8c1.1,0.3,1.3,0.9,0.5,1.8l-0.6,0.6
	c-2.7,3.1-3.3,7.5-1.3,10.7c0.4,0.5,0.9,0.9,1.4,1.3c0.4-0.4,0.7-0.9,1-1.4c0.1-0.2,0.2-0.3,0.3-0.5c1-2.5,3.7-3.8,6.3-3
	c0.6,0.3,1.1,0.6,1.6,1c-0.3,0.4-0.8,0.9-1.2,1.2c-2.1,1.2-3.1,3.7-2.5,6.1c0.3,2,1.5,3.8,3.3,4.9c2.5,1.6,5.4,2.5,8.3,2.8
	c-0.3-0.4-0.6-0.7-0.9-1c-3.6-3.2-5.6-7.9-5.3-12.7c0.1-4.4,2.7-7.4,6.8-8.6c4.4-1.2,7,1.8,7.9,4.9c0.5,1.4-0.1,2.9-1.5,3.5L40,136
	c-1,0.5-1.5,1.7-1.2,2.8c0.3,2,1.6,3.6,3.4,4.5c4.4,2.4,11.3-0.7,12.5-5.6c0.6-2.4-0.2-4.9-2.2-6.3c-1.9-1.3-4.5-1.1-6.2,0.5
	c-0.8,0.7-1.3,0.4-1.4-0.6c-0.5-2.6,1.1-5.2,3.7-5.9c1.1-0.4,2.3-0.7,3.4-1.1c0.5-0.2,1.2-0.6,1.2-0.9c-0.1-0.6-0.4-1.1-0.9-1.4
	c-1.9-1.3-4.2-1.8-6.5-1.4c-2.8,0.5-3.8,1.7-3.9,4.2c0,0.4-0.1,0.9-0.3,1.3c-0.5,0.1-1,0-1.5-0.3c-1.8-1.3-2.2-3.8-0.9-5.6
	c0.3-0.4,0.6-0.7,0.9-0.9c0.8-0.6,1.6-1.1,2.4-1.6c-1.5-0.8-3.3-0.9-4.8-0.2c-3.3,1.1-4.3,3.5-3.6,6.8c-1.4-0.1-2.5-1.1-2.6-2.5
	c-0.3-1.5-0.8-1.8-2.3-1.4c-1.9,0.4-3.5,1.7-4.2,3.5c-0.2,0.5-0.6,1-0.9,1.6c-1.7-2.3-1.9-5.5-0.3-8c1.4-1.7,3.3-2.4,5.1-3.2
	c0.4-0.2,0.8-0.4,1.1-0.7c0-0.1,0-0.3-0.1-0.4c-1.2-0.2-2.3-0.4-3.5-0.7c-0.4-0.2-0.8-0.4-1.2-0.6c0.3-0.4,0.4-1,0.8-1.2
	c1.7-0.8,3.4-1.5,5.2-1.9c2.5-0.5,5,0.4,7.4,1.1c0.6,0.2,1.1,0.3,1.7,0.4c-0.1-0.4-0.2-0.7-0.5-1c-0.5-0.5-1.1-0.9-1.6-1.4
	c-0.3-0.4-0.5-0.9-0.8-1.4c0.5-0.2,0.9-0.5,1.4-0.7s0.8-0.1,1.2-0.2c0-0.2,0-0.3-0.1-0.3s-0.1-0.2-0.2-0.3c-5.6-9.5-6-19.3-1-29.2
	c2-4.4,5.8-7.7,10.4-9c2-0.6,4.1-1,6.1-1.6c0.7-0.2,1.5-0.8,1.6-1.3s-0.6-1.2-1-1.7c-0.6-0.6-1.3-1.1-2-1.6c0.5-0.1,1-0.2,1.5-0.2
	c2.7-0.1,5.2,1.7,5.9,4.3c0.1,1.1,0.9,2.1,2,2.4c1.3,0.4,2.7,0.6,4.1,0.9c-0.1-0.9-0.3-1.7-0.4-2.6c-0.1-1.6-1.2-2.9-2.8-3.2
	c-2.7-0.8-4.5-3.4-4.3-6.2c0.1-0.4,0.2-0.8,0.4-1.1c0.6,0.8,1.1,1.4,1.6,2c1.2,1.4,2.2,1.3,2.8-0.5c0.5-1.4,0.7-2.9,1.1-4.4
	c1.1-4.7,3.4-8.7,7.6-11.2c9.8-5.9,19.8-6.2,30-0.8l1.6,0.8c0.4-0.9,0.7-1.7,1.1-2.5c0.7,0.5,1.4,1,2.1,1.6l1.5,1.5
	c0.1-0.1,0.2-0.1,0.3-0.2c-0.1-0.4-0.3-0.8-0.4-1.2c-0.4-2.3-1.1-4.7-1.3-7c-0.1-2.2,0.6-4.3,2-6c0.3-0.3,0.7-0.6,1.1-0.8
	c0.2,0.4,0.4,0.8,0.6,1.2c0.2,0.5,0.1,1.1,0.3,1.7s0.4,1.3,0.6,1.9h0.4c0.6-1.3,1.1-2.5,1.7-3.8c1.9-4.2,6.6-4.2,9.3-2.8
	c0.2,0.1,0.4,0.2,0.9,0.5c-0.9,0.5-1.5,0.9-2.1,1.2c-1.5,0.7-2.6,1.9-3,3.5c-0.6,1.6-0.2,2.4,1.5,2.8c1.1,0.3,2.1,1.1,2.6,2.2
	c-1.5,0.2-3,0.5-4.5,0.9c-1.5,0.6-2.2,2-2.7,3.5c-0.6,1.4-0.4,3.1,0.4,4.4c0.5-0.8,0.8-1.5,1.2-2.1c1.3-1.9,4.6-3.1,6.7-0.5
	c0.3,0.5,0.5,1,0.6,1.6c-0.5,0.2-1,0.3-1.5,0.4c-1.3-0.1-2.5,0.5-3.2,1.6c-1.7,2.9-1.4,6.6,0.7,9.2c0.8,1.1,1.5,0.9,2-0.3
	s0.7-2.3,1.1-3.4c0.5-1.7,1.7-3.1,3.3-3.8c1.7-0.7,2.5-0.5,3.5,0.8c-0.5,0.8-0.9,1.6-1.2,2.5c-0.6,1.9,0,3.9,1.6,5.1
	c1.7,1.5,4.1,1.8,6.2,0.9c2.7-1.1,4.7-3.5,5.3-6.4c1.1-4.3-0.8-7.9-4.6-9.1c-1.3-0.4-2.7,0.1-3.4,1.3c-0.3,0.6-0.6,1.2-1,1.7
	s-1,0.9-1.7,1.1c-2.6,0.5-6.2-2.2-6.6-4.8c-0.7-4.2,2.6-8.9,6.7-9.6c5-1,10.1,0.5,13.8,4c0.7,0.7,1.3,1.4,2.2,2.2
	c-0.6-3.2-1.3-6.1-3-8.6c-1.5-2.3-4-3.6-6.7-3.6c-2.2,0-3.6,1.4-4.8,3.1c-0.2,0.3-0.7,0.8-1,0.7s-0.8-0.6-0.8-0.9
	c-0.3-1.1-0.3-2.3-0.2-3.5c0.3-2.1,1.9-3.1,3.8-3.8c0.4-0.2,1-0.7,1-1c-0.1-0.5-0.4-1-0.9-1.3c-2.9-1.5-5.8-1.9-8.8-0.3
	c-1,0.6-1.9,1.2-2.7,2c-1.1,0.9-1.6,0.7-1.9-0.7c-0.9-3.6,1.6-6.9,5.5-7.3c1.9-0.2,3.9-0.2,5.8-0.5c1.1-0.1,1.4-1,0.6-1.7
	c-1.1-0.9-2.3-1.7-3.6-2.4c-0.6-0.2-1.2-0.4-1.9-0.4c0-0.1,0.1-0.2,0.1-0.3c8.1-1.9,13.5,3,19.1,7.6c0.1-5,1.2-9.4,6.1-11.9h1.7
	c5.1,2.7,6.2,7.2,5.7,12.5c0.9-0.8,1.7-1.6,2.6-2.4c3.5-2.8,7.1-5.5,11.7-6.2c1.8-0.4,3.7-0.2,5.4,0.6c-0.3,0.1-0.6,0.2-0.9,0.3
	c-1.5,0.1-3,0.9-4,2c-0.4,0.6-0.7,1.2-0.9,1.8c0.5,0.3,1.1,0.5,1.7,0.7c1.7,0.2,3.4,0.2,5.1,0.3c3.2,0.2,5.7,2.9,5.5,6.1
	c0,0.3-0.1,0.6-0.1,1c-0.3,1.5-0.8,1.7-2,0.8c-1.3-1-2.6-1.8-4.1-2.5c-2.6-1-5.1-0.4-7.5,1c-1.2,0.7-1.1,1.5,0.1,2.1
	c0.5,0.2,1,0.4,1.4,0.7c2.4,1.3,3.4,4.2,2.3,6.7c-0.5,1.2-0.9,1.2-1.8,0.3c-0.8-1.1-1.8-2-2.9-2.7c-2.6-1.3-6.6,0-8.3,2.8
	c-1,2-1.9,4.1-2.6,6.2c-0.3,0.7-0.4,1.5-0.5,2.3c0.2,0,0.4-0.1,0.6-0.2c2.7-3.3,6.5-5.4,10.7-5.9c5.4-0.7,9.2,1.3,11,6
	c1.3,3.3,0.3,6.1-2.8,7.9c-2.1,1.2-4.5,1.7-5.9-1.6c0-0.1-0.1-0.2-0.2-0.3c-0.6-1.3-2.2-1.9-3.6-1.4c-2.4,0.6-4.2,2.6-4.7,5
	c-0.5,2.2-0.1,4.5,1,6.4c1.6,2.8,3.9,4.8,7.4,4.5c2-0.2,3.7-1,4.5-2.9c0.9-1.7,0.6-3.8-0.6-5.3c-0.3-0.4-0.5-0.8-0.6-1.2
	c0.4-0.3,0.9-0.4,1.4-0.5c2.6-0.2,4.6,1.2,5.6,4.1c0.4,1.1,0.6,2.3,1.1,3.4c0.5,1.3,1.3,1.4,2.1,0.3c1.4-1.7,2-4,1.7-6.2
	c-0.5-3.4-1.4-4.2-4.9-4.5c-1-0.1-1-0.7-0.7-1.3c0.8-1.7,2.8-2.6,4.6-1.9c1.4,0.4,2.5,1.4,3.1,2.7c0.2,0.4,0.5,0.7,0.8,1.2
	c0.9-1.8,0.8-4-0.2-5.7c-1.4-2.6-3.7-3.2-6.4-2.6c0.2-1.3,1.2-2.3,2.5-2.6c1.5-0.4,1.9-1,1.4-2.6c-0.5-1.8-1.8-3.2-3.5-3.9
	c-0.6-0.3-1.1-0.6-1.6-0.9c0.5-0.3,0.7-0.6,1-0.7c1.8-0.9,4-1,5.9-0.2c2.3,0.9,3.2,2.8,4,4.9l0.9,2.1c0.1,0,0.3,0,0.4-0.1
	c0.1-0.4,0.3-0.8,0.4-1.3c0.2-0.8,0.2-1.6,0.4-2.4c0.1-0.5,0.4-0.9,0.7-1.3c0.4,0.3,1,0.5,1.2,0.9c0.8,1.5,1.4,3.1,1.8,4.7
	c0.7,3-0.2,5.8-1.2,8.6c-0.1,0.4-0.2,0.7-0.2,1.1c0.3,0,0.6-0.2,0.8-0.4c0.6-0.7,1.2-1.4,1.9-2c0.3-0.3,0.8-0.5,1.2-0.5
	c0.3,0,0.5,0.7,0.6,1.1s0.1,0.9,0.2,1.5c0.4-0.2,0.8-0.4,1.2-0.7c9.1-5.2,18.4-5.6,27.9-1.1c4.9,2.3,8.5,5.9,9.9,11.3
	c0.5,2,0.9,4,1.5,5.9c0.5,1.7,1.7,1.8,2.8,0.4c0.5-0.6,1-1.3,1.6-2c0.2,0.4,0.3,0.5,0.3,0.6c0.4,2.9-1.3,5.7-4.1,6.6
	c-1.6,0.3-2.8,1.7-2.8,3.3c-0.1,0.9-0.4,1.8-0.5,2.6c0.9-0.2,1.9-0.4,2.8-0.5c1.7-0.3,2.9-1,3.3-2.8c0.1-0.4,0.3-0.8,0.5-1.2
	c1.4-2.4,4.2-3.5,6.8-2.7c-0.8,0.6-1.4,1.1-2.1,1.7c-1.3,1.2-1.2,2.1,0.5,2.7c1.2,0.4,2.5,0.7,3.7,0.9c4.5,1,8.6,2.8,11.2,6.7
	c6.3,9.3,7.2,19.1,2.5,29.3c-0.5,1.2-1.2,2.3-1.8,3.6c0.3,0,0.5,0,0.8,0.1c0.6,0.2,1.3,0.5,1.9,0.7c-0.4,0.6-0.7,1.2-1.1,1.7
	c-0.6,0.6-1.3,1.3-2,1.8c0,0.1,0.1,0.2,0.1,0.3l1.3-0.3c1-0.3,2-0.7,3-0.9c3.2-0.9,6.6-0.4,9.5,1.2c0.6,0.3,1,1.1,1.4,1.6
	c-0.6,0.3-1.2,0.6-1.8,0.7c-0.7,0.2-1.5,0.2-2.2,0.4c-0.3,0.1-0.6,0.2-0.8,0.4c0,0.1,0,0.3-0.1,0.4c0.8,0.4,1.6,0.8,2.5,1.1
	c4.6,1.6,5.6,5.3,4.4,9.3c-0.2,0.4-0.4,0.8-0.8,1.1c-0.3-0.3-0.6-0.6-0.8-1c-0.7-1.9-2.3-3.3-4.3-3.8c-1.5-0.4-2-0.1-2.3,1.4
	c-0.2,1.3-1.3,2.3-2.6,2.2c0.1-0.9,0.1-1.9-0.1-2.8s-0.7-1.8-1.4-2.4c-0.7-0.6-1.5-1.1-2.4-1.4c-1.5-0.7-3.1-0.5-4.5,0.3
	c1,0.7,1.9,1.3,2.7,1.9c1.6,1.4,1.8,3.9,0.4,5.5c-0.1,0.2-0.3,0.3-0.5,0.5c-0.5,0.3-1.1,0.5-1.7,0.6c-0.2-0.5-0.3-1-0.4-1.5
	c-0.1-1.9-0.8-3.1-2.7-3.6c-2.6-1-5.5-0.5-7.8,1.1c-0.4,0.3-0.9,0.9-0.8,1.3s0.7,0.8,1.1,1c1.1,0.4,2.3,0.7,3.4,1.1
	c2.7,1,4,2.9,3.8,5.6c0,0.5-0.4,0.9-0.6,1.4c-0.4-0.1-0.7-0.3-1.1-0.5c-1.3-1.2-3.2-1.5-4.9-0.8c-3.3,1.3-4.4,5.8-2.2,8.9
	c1.4,2.1,3.5,3.5,5.9,4.1c3,0.7,5.7,0.2,7.7-2.3c2.3-2.8,1.9-4.8-1.3-6.5c-0.9-0.4-1.6-1.3-1.7-2.3c-0.2-2.5,2.3-5.9,4.8-6.3
	c3.8-0.4,7.5,1.6,9.2,5c2.1,5,0.3,12.3-4.1,16.2c-0.5,0.4-1,0.8-1.4,1.3c3-0.2,6-1.1,8.5-2.8c4.4-2.9,4.5-8.3,0.3-11.3
	c-0.3-0.2-0.5-0.6-0.6-1c0-0.3,0.5-0.6,0.8-0.7c2.4-1,5.2-0.2,6.7,2c0.3,0.6,0.6,1.2,0.9,1.8c0.6,1.1,1.1,1.2,1.8,0.2
	c1.8-2.4,2.2-5.6,0.9-8.4c-0.6-1.3-1.4-2.4-2.4-3.4c-0.7-1-0.6-1.5,0.5-1.9c2.8-0.9,6.2,0.5,7,3.3c0.5,2.1,0.8,4.3,0.9,6.5
	c0.1,0.9-0.2,2.2,0.9,2.3c0.7,0.1,1.7-0.8,2.2-1.5c0.8-1.3,1.2-2.8,2-4.5c0.1,1.6,0.3,2.9,0.3,4.3c0,4.1-2,7.4-4.3,10.6
	c-1.3,1.8-2.8,3.4-4.1,5.1c5.2-0.3,9.9,0.8,12.7,5.9v2.1c-2.7,5.1-7.2,6.1-12.3,5.8c0.7,0.8,1.5,1.6,2.2,2.4c2.6,3.3,5,6.6,5.7,10.9
	c0.5,2,0.3,4.1-0.4,6.1c-0.2-0.4-0.2-0.9-0.4-1.2c-0.7-1.3-1.3-2.7-2.1-3.9c-0.3-0.4-1-0.5-1.5-0.7c-0.2,0.6-0.7,1.1-0.7,1.7
	c-0.2,1.5-0.1,3-0.3,4.5c-0.4,4.2-2.9,6.4-6.6,6.2c-0.7-0.1-1.3-0.4-1.9-0.8c0.3-0.5,0.5-1.1,0.8-1.6c0.2-0.3,0.4-0.5,0.6-0.7
	c2.5-3.1,2.5-6.4,1-9.9c-0.4-0.6-0.8-1.1-1.4-1.5c-0.4,0.5-0.8,1-1.2,1.5c-1.3,2.8-3.3,4-6.1,3.4c-0.7-0.2-1.3-0.6-1.9-1
	c0.4-0.5,0.8-1,1.3-1.4c1.9-1.2,2.8-3.5,2.4-5.7c-0.2-2.1-1.4-3.9-3.1-5.1c-2.5-1.8-5.5-2.8-8.6-2.9c0,0.2,0.2,0.2,0.3,0.3
	c3.5,2.9,5.6,7.1,5.8,11.6c0.5,5.2-2.2,9.2-7,10.3c-2.1,0.6-4.4,0-5.8-1.7c-2.7-2.9-2.4-5.4,0.9-7.4c1.4-0.6,2.1-2.2,1.5-3.6
	c-0.6-1.9-1.9-3.5-3.8-4.3c-4.2-1.8-10,0.8-11.6,5c-1,2.4-0.4,5.2,1.6,7c1.8,1.4,4.1,1.3,6.5-0.5c0.7-0.5,1.1-0.3,1.3,0.6
	c0.5,2.1-0.5,4.4-2.5,5.4c-1.5,0.7-3.1,1.3-4.7,1.8c-0.4,0.2-1,0.6-1,1c0.1,0.5,0.3,0.9,0.7,1.2c1.5,1.1,3.3,1.7,5.2,1.7
	c3.7-0.2,4.9-1.4,5.2-4.9c0.1-0.9,0.6-1.2,1.5-0.7c1.4,0.7,2.2,2.2,2,3.8s-1.2,3-2.7,3.7c-0.4,0.2-0.8,0.5-1.3,0.8
	c2.8,1.9,7.8-0.3,8.2-3.5c0.1-0.7,0.1-1.4,0-2.1c0-0.3,0.1-0.6,0.2-0.9c0.3,0.1,0.8,0.1,0.9,0.3c0.6,0.7,1,1.5,1.4,2.3
	c0.4,1.3,0.8,1.7,2.2,1.3c1.9-0.4,3.5-1.8,4.3-3.6c0.2-0.5,0.5-0.9,0.8-1.5c0.2,0.2,0.4,0.3,0.6,0.5c1.3,1.9,1,6.1-0.4,7.8
	c-1.3,1.5-3,2.1-4.6,2.8c-0.5,0.2-0.9,0.4-1.3,0.6v0.4c1.6,0.4,3.2,0.8,4.9,1.2c-0.7,1.2-1.9,2.1-3.2,2.6c-3.7,1.4-7.2,0.8-10.8-0.5
	l-1.2-0.3c-0.1,0.2-0.2,0.3-0.3,0.5c0.4,0.2,0.8,0.4,1.1,0.7c0.6,0.5,1.1,0.9,1.6,1.4c0.3,0.3,0.5,0.8,0.6,1.2
	c-0.1,0.3-0.7,0.5-1.1,0.6s-0.9,0.1-1.5,0.2c0.1,0.2,0.2,0.4,0.3,0.6c1.1,2.7,2.6,5.2,3.3,8c2.5,8.7,0.8,16.8-4.1,24.2
	c-2.7,3.9-6.6,5.8-11.1,6.8c-1.3,0.3-2.6,0.6-3.8,1c-1.6,0.5-1.8,1.4-0.6,2.5c0.4,0.4,0.8,0.6,1.2,1l1,1c-0.6,0.1-0.9,0.3-1.2,0.3
	c-2.2,0-5.3-1.2-6-4.1c-0.2-1.5-1.5-2.7-3-2.9c-1.2-0.2-2.4-0.5-3.4-0.7c0.2,1.2,0.5,2.4,0.8,3.6c0.3,1.4,1.3,2.5,2.7,2.8
	c1.1,0.4,2,1,2.9,1.8c1.3,1.5,1.8,3.6,1.2,5.5c-0.7-0.8-1.1-1.5-1.6-2s-1.2-1-1.7-1s-1,0.9-1.2,1.4c-0.4,1.3-0.7,2.7-1,4.1
	c-1,4.3-2.8,8.1-6.4,10.6c-8.5,5.9-17.7,7.2-27.3,3.3c-1.8-0.7-3.5-1.7-5.1-2.4c-0.3,0.8-0.6,1.7-1,2.5c-0.7-0.5-1.5-1-2.2-1.6
	c-0.5-0.5-0.9-1-1.4-1.5c-0.1,0.1-0.2,0.1-0.3,0.2c0.1,0.4,0.2,0.7,0.3,1.1c1,2.5,1.4,5.3,1.2,8c-0.1,2-0.8,3.9-2.1,5.5
	c-0.2,0.2-0.7,0.6-0.8,0.5c-0.3-0.1-0.5-0.5-0.6-0.9c-0.2-0.8-0.3-1.7-0.5-2.6c-0.1-0.4-0.3-0.8-0.5-1.2h-0.4
	c-0.4,1-0.9,2.1-1.3,3.1c-1.7,4.3-5.5,5-9.1,3.7c-0.4-0.1-0.7-0.5-1.3-0.9c0.6-0.3,1-0.6,1.4-0.8c1.6-0.7,2.8-1.9,3.5-3.5
	c0.8-1.9,0.4-2.6-1.5-3.2c-1.2-0.3-2.1-1.3-2.4-2.5c3.7,0.6,6.1-0.5,7.1-4.1c0.6-1.5,0.4-3.1-0.5-4.4c-0.4,0.7-0.8,1.4-1.3,2.1
	c-1.7,2.4-4.9,2.7-6.6,0.5c-0.3-0.5-0.4-1-0.6-1.6c0.5-0.2,1-0.3,1.5-0.4c2-0.1,3-0.7,3.7-2.6c1-2.4,0.7-5.1-0.7-7.2
	c-0.5-0.6-1-1.1-1.6-1.6c-0.4,0.6-0.8,1.2-1.2,1.9c-0.7,1.5-1.1,3.2-1.9,4.6c-1,1.7-2.7,2.1-4.5,2c-0.5,0-0.9-0.4-1.3-0.6
	c0.2-0.4,0.4-0.8,0.6-1.1c1.7-2.1,1.4-5.3-0.7-7c-0.3-0.3-0.7-0.5-1.1-0.7c-1.7-0.9-3.8-0.9-5.5,0.1c-2.8,1.5-4.7,4.4-4.9,7.6
	c-0.4,3.8,1.6,6.8,4.8,7.6c1.3,0.4,2.8-0.2,3.4-1.4c0.3-0.5,0.5-1,0.8-1.5c0.5-0.9,1.4-1.5,2.5-1.4c2.6-0.1,5.8,2.7,6,5.3
	c0.4,3.9-2.7,8.4-6.4,9.1c-5.6,1.2-11.4-0.7-15.1-5.1c-0.3-0.3-0.5-0.6-0.9-1c0.3,3.3,1.4,6.5,3.3,9.3c3.2,3.8,7.9,3.7,10.8-0.2
	c0.1-0.1,0.1-0.2,0.2-0.3c0.6-0.8,1-0.6,1.4,0.1c0.2,0.3,0.3,0.7,0.4,1c0.7,3-0.5,5.2-3.5,6.6c-0.5,0.3-0.9,0.7-1.3,1.1
	c0.4,0.5,0.7,1.2,1.3,1.4c2.2,1.3,4.8,1.5,7.2,0.6c1.3-0.7,2.5-1.4,3.7-2.3c0.4-0.3,1.2-0.8,1.4-0.6c0.4,0.4,0.7,0.9,0.8,1.5
	c0.7,3.2-1.4,6.2-4.5,6.9c-0.3,0.1-0.5,0.1-0.8,0.1c-1.9,0.2-3.8,0.2-5.6,0.5c-1.4,0.2-1.6,1-0.7,2c1.2,1.3,2.7,2.1,4.4,2.4
	c0.3,0,0.6,0.1,0.9,0.2c-8.5,2.2-14-3-19.6-7.9C165,304.6,163.9,309.2,158.8,312z M52.5,85.1c-2.6-1-4.8-0.1-6,2.5
	c-0.5,1.1-0.8,2.2-0.9,3.4c-0.3,8.8,2.6,16.3,9.6,21.9c0.8,0.6,1.6,1.2,2.7,2c-0.8-1.1-1.5-2.3-2.2-3.5c-1.7-3.6-0.5-9.2,5.1-9.4
	c0.7,0.1,1.4,0.3,2.1,0.5c-0.3,0.6-0.6,1.1-1,1.6c-1.6,1.6-2.4,3.9-1.9,6.2c0,1,0.9,1.8,1.9,1.8c0.2,0,0.5-0.1,0.7-0.2l2.1-0.6
	c-0.1,0.5-0.3,1-0.7,1.4c-2.5,2.2-2.8,4.9-2.1,8c0.9,3.9,2.4,7.6,2.2,11.7c10.1-34,32-56.4,65.4-67.4c-2.8-0.7-5.9-1.4-9-2.2
	c-3.3-0.8-6.2-0.5-8.5,2.3c-0.3,0.3-0.6,0.6-1,0.7c-0.1-0.6,0-1.2,0.3-1.7c0.7-2.3-0.1-3.3-2.5-3.3c-2.2,0-4.2,1-5.7,2.6
	c-0.8,0.8-1.3,0.7-1.6-0.4c-0.6-2.8,0.9-5.6,3.6-6.6c2.6-0.9,5.5-0.4,7.6,1.3c0.4,0.4,0.9,0.7,1.4,1c-0.9-1.8-2.2-3.4-3.6-4.8
	c-1.8-1.6-3.7-3-5.8-4.2c-4.5-2.6-9.7-3.7-14.9-3c-2.5,0.3-4.5,1.3-5.5,3.8c-0.6,1.1-0.2,2.5,0.9,3.1c0.1,0.1,0.2,0.1,0.3,0.2
	c0.5,0.3,1,0.5,1.8,0.9c-1.3,0.5-2.7,0.4-4-0.1c-1.6-0.7-3.2-1.5-4.8-2.4c-1-0.6-1.5-0.4-1.6,0.7c-0.2,1.6,0.8,4.2,3.3,4.1h2
	c-0.5,0.6-0.7,1.1-1,1.2c-1.1,0.5-2.2,0.7-3.4,0.8c-1-0.1-1.9,0.3-2.5,1c-1,1-1.3,2.4-0.8,3.7c0.6,1.5,1.6,2.7,3.2,2.6
	s3.1-0.4,4.6-0.8c0.8-0.2,1.6-0.4,2.6-0.7c-0.3,1.7-1.2,3.1-2.6,4.1c-3.7,3.2-7.8,3.9-12.5,1.7c1.5,2.7,1.6,5.9,0.4,8.7
	c-1.1,2.8-3.3,5.1-6.2,6.1c0.2-0.9,0.3-1.5,0.4-2c0.3-1.3,0.8-2.6,1-3.9c0.4-2.2-1.1-4.3-3.2-4.6c-0.2,0-0.4-0.1-0.6-0.1
	c-2.2-0.1-3.5,1.5-3.5,4.1c0,1.9-0.7,3.2-2.1,3.5c0-0.3,0.1-0.6,0.1-0.9c0-2.3-0.9-3.6-3-3.9c-0.7,0-1.5,0.1-2.2,0.3
	c0.2,0.6,0.4,1.2,0.7,1.8c0.9,1.4,1.9,2.7,1.9,4.4C53.2,84.4,52.8,84.7,52.5,85.1z M157.9,246c49.9-0.7,89.7-41.8,88.9-91.6
	S205,64.7,155.2,65.5c-0.7,0-1.5,0-2.2,0.1c-48.7,1.8-88.7,42.6-86.9,93.5C67.7,208.2,108.7,246.8,157.9,246z M114.2,254.5l-0.2-0.2
	c-0.5,0.4-1,0.8-1.5,1.1c-0.8,0.5-1.8,1-2.7,1.3c-4.7,1.4-8.9-1.8-8.4-6.4c0-0.5,0.4-0.9,0.6-1.3c0.4,0.2,0.8,0.4,1.1,0.7
	c1.5,1.8,3.9,2.7,6.2,2.4c1.8-0.2,2.5-1.1,2-2.9c-0.2-0.7-0.4-1.3-0.6-2c0.1-0.1,0.2-0.1,0.3-0.2c0.4,0.4,0.9,0.7,1.3,1.1
	c1.7,1.9,4.3,2.7,6.8,2.1c1.7-0.3,3.4-0.8,5.1-1.2c3.2-0.9,6.6-1.3,10-1c-4.5-1.5-9.3-2.9-13.8-4.8c-9.1-3.8-17.6-8.9-25.2-15.3
	c-7.5-6.3-14-13.8-19.3-22.1c-2.6-4.2-4.9-8.6-6.9-13.1c-2-4.4-3.4-9.1-4.9-13.5c-0.1,1,0,2.2-0.2,3.3c-0.6,3.2-1.4,6.3-2.1,9.5
	c-0.7,2.9-0.2,5.5,2.1,7.5c0.4,0.3,0.6,0.8,1,1.2c-0.7,0-1.4-0.1-2-0.3c-1.8-0.5-2.8,0.1-3,1.9c0,0.6,0,1.2,0,1.8
	c0.3,1.8,1.2,3.4,2.6,4.6c0.2,0.3,0.5,0.8,0.4,1s-0.6,0.4-1,0.5c-0.3,0.1-0.7,0.1-1,0.1c-5.6-0.2-7-5.7-5.3-9.3
	c0.5-1.1,1.3-2.1,1.9-3.2c-1.6,0.9-3.1,2-4.4,3.3c-5.4,5.5-8.1,13.1-7.4,20.8c0.1,2.3,1.4,4.4,3.4,5.5c1.7,1,3.1,0.5,4-1.2
	c0.2-0.4,0.4-0.9,0.6-1.3c0.3,0.3,0.4,0.8,0.4,1.2c0,2.6-0.9,5.1-2.5,7.1c-0.3,0.4-0.5,0.8-0.5,1.3c0.5,0.3,1,0.5,1.5,0.6
	c1.9,0.2,3.5-1.2,3.7-3.1c0-0.2,0-0.4,0-0.6c0-0.4,0.1-0.9,0.1-1.5c1.4,1,2.1,2.6,2,4.3c0,0.8,0.2,1.6,0.6,2.3
	c1,1.3,2.8,1.8,4.3,1.1c1.7-0.7,2.6-2.4,2.4-4.2c-0.2-1.5-0.8-2.9-1.1-4.4c-0.1-0.5-0.2-1-0.3-1.8c2.6,0.9,4.7,2.9,5.8,5.4
	c1.7,3.3,1.3,6.7-0.4,10.1c4.2-2.2,8-2.1,11.7,0.7c1.6,1.2,3.1,2.5,3.6,4.9c-0.7-0.2-1.3-0.4-2-0.6c-1.6-0.5-3.2-0.8-4.9-1
	c-1.9-0.1-3.3,1.5-3.6,3.5c-0.2,1.6,0.8,3.1,2.3,3.7c0.5,0.1,0.9,0.1,1.4,0c1.8-0.3,3.7,0.7,3.9,2.1h-1.4c-1.9-0.1-3.5,1.4-3.5,3.4
	c0,0.2,0,0.4,0,0.6c0.2,1.2,0.6,1.4,1.7,0.8c1-0.7,2.1-1.4,3.3-1.9c1.7-0.8,3.6-1,5.4-0.6c-0.8,0.4-1.3,0.7-1.8,1
	c-1.4,0.8-1.8,1.8-1.2,3.2c0.3,0.7,0.7,1.3,1.2,1.9c2,2.1,4.7,2.2,7.3,2.2c5.8-0.2,11.5-2.2,16-5.9
	C111.1,258.9,112.5,256.6,114.2,254.5L114.2,254.5z M258.6,225.4c0.1,0.2,0.3,0.5,0.4,0.7c1.1,2.5,2.7,3,4.9,1.3
	c1.8-1.4,2.9-3.5,2.8-5.8c0.4-7.8-2.3-14.4-7.6-20.1c-1.4-1.3-2.8-2.4-4.4-3.5c0.6,1.3,1.5,2.3,2,3.6c1.6,3.6,0.2,8.9-5.2,9.2
	c-0.7-0.1-1.4-0.2-2.1-0.5c0.3-0.6,0.6-1.2,1-1.7c0.1-0.2,0.3-0.3,0.4-0.4c1.4-1.5,2-3.7,1.6-5.7c0-1.1-0.9-1.9-2-1.9
	c-0.2,0-0.5,0.1-0.7,0.2l-2.1,0.6c-0.1-0.1-0.1-0.2-0.2-0.3c0.3-0.4,0.6-0.8,1-1.2c2-1.7,2.8-4.4,2.1-6.9c-0.8-4-1.8-7.9-2.6-11.5
	c-11,34.4-34.1,56.8-69.3,66.7c1.8,0,3.5,0.2,5.3,0.4c2.6,0.5,5.1,1.2,7.7,1.8c3.3,0.8,6.3,0.6,8.6-2.3c0.2-0.3,0.6-0.4,0.9-0.7
	c0,0.7-0.1,1.3-0.3,2c-0.5,1.9,0.2,2.8,2.1,3c2.3,0.2,4.6-0.8,6.1-2.5c0.3-0.3,0.7-0.5,1.1-0.6c0.2,0.4,0.4,0.8,0.6,1.2
	c0.4,2.7-1.1,5.3-3.7,6.3c-2.5,0.9-5.3,0.4-7.4-1.2c-0.5-0.4-1-0.8-1.5-1.1c1.8,3.1,4.3,5.8,7.3,7.7c5.6,3.5,11.5,5.2,18.1,4.1
	c2.1-0.3,3.8-1.7,4.5-3.7c0.6-1.1,0.2-2.5-0.9-3.1c0,0-0.1-0.1-0.2-0.1c-0.7-0.3-1.4-0.7-2-1.1c1.9-0.4,3.9-0.2,5.6,0.6
	c1.1,0.6,2.2,1.3,3.3,2c0.8,0.5,1.3,0.3,1.4-0.6c0.5-1.8-0.6-3.7-2.4-4.2c-0.3-0.1-0.7-0.1-1.1-0.1H230c0.4-0.5,0.6-0.9,0.8-1.1
	c1-0.8,2.3-1.1,3.6-1c2-0.1,3.5-1.8,3.4-3.8s-1.8-3.5-3.8-3.4c-1.7,0.2-3.3,0.6-4.9,1c-0.6,0.1-1.1,0.3-1.9,0.5
	c0.6-2.7,2.3-4,4.1-5.2c3.7-2.4,7.5-2.4,11.4-0.2c-3.3-6.1-0.4-14.6,5.3-15.4c-0.1,0.7-0.3,1.3-0.4,2c-0.4,1.3-0.7,2.6-1,4
	c-0.3,2.1,1.2,4.1,3.4,4.4c0.1,0,0.3,0,0.4,0c2.4,0,3.5-1.3,3.4-4.1c-0.1-1.5,0.7-2.9,2.1-3.5v1.7c0.1,1.9,1.8,3.4,3.7,3.3
	c0.1,0,0.3,0,0.4,0c1.1-0.2,1.3-0.6,0.7-1.5c-0.4-0.6-0.8-1.1-1.2-1.7C258.5,230,258.1,227.6,258.6,225.4L258.6,225.4z M242.4,70.6
	c-3.7,1.4-5.8,1.5-8.7,0.4c-3.1-1.2-6.1-4.2-5.9-6.3c0.8,0.2,1.6,0.5,2.4,0.7c1.4,0.4,2.9,0.6,4.3,0.8c2.1-0.1,3.6-1.9,3.5-3.9v-0.1
	c-0.2-2.3-1.6-3.4-4-3.1c-1.5,0.2-3.2-0.7-3.6-1.9l0.2-0.3c2.9,0.5,4.7-1,4.6-3.7c0-0.4-0.2-1.1-0.5-1.2s-0.9,0.2-1.3,0.4
	c-1.5,0.7-3,1.7-4.6,2.3c-1.3,0.5-2.7,0.5-4,0.1c0.8-0.4,1.3-0.6,1.8-0.9c1.3-0.5,1.9-1.9,1.4-3.2c0-0.1-0.1-0.2-0.1-0.2
	c-0.8-1.8-2.4-3.1-4.3-3.5c-2.6-0.6-5.4-0.6-8,0c-5.9,0.9-11.4,3.9-15.3,8.4c-0.9,1-1.6,2.1-2.4,3.1c1.4-0.9,2.9-1.6,4.5-2.2
	c4.4-1.3,8.4,1.7,8.2,6c-0.1,0.6-0.3,1.1-0.6,1.6c-0.5-0.2-1-0.5-1.4-0.8c-1.5-1.6-3.6-2.4-5.8-2.3c-2,0.1-2.7,1.1-2.2,3
	c0.2,0.6,0.4,1.3,0.6,2c-0.2-0.1-0.3-0.1-0.5-0.1c-0.4-0.3-0.7-0.6-1-0.9c-1.7-2-4.3-2.8-6.8-2.2c-3.4,0.7-6.8,1.6-10.1,2.3
	c33.1,10.8,54.8,32.9,65.2,66.3c0.1-0.7,0.1-1.3,0.2-1.9c0.7-3.1,1.4-6.1,2.1-9.2c0.6-2.8,0.2-5.2-2-7.2c-0.4-0.4-0.7-0.9-1.1-1.3
	c0.7,0,1.5,0.1,2.2,0.3c1.6,0.4,2.6-0.1,2.8-1.8c0.3-2.1-0.4-4.3-1.9-5.8c-0.3-0.3-0.6-0.6-0.8-0.9c-0.6-0.7-0.4-1.2,0.5-1.4
	c2.4-0.5,4.9,0.5,6.2,2.6c1.6,2.9,1.1,6.6-1.2,9c-0.2,0.3-0.4,0.6-0.7,0.8c0.2,0.1,0.3,0.1,0.5,0c3.3-2.2,6.1-5.2,8.1-8.6
	c2.8-5.1,4.2-10.5,3.3-16.4c-0.2-2.1-1.6-4-3.6-4.8c-1.2-0.7-2.7-0.3-3.4,0.9c-0.1,0.1-0.1,0.2-0.2,0.4c-0.2,0.5-0.4,0.9-0.6,1.4
	c-0.3-0.5-0.4-1-0.4-1.5c0.1-2.6,1.1-5,2.7-7c0.7-0.9,0.5-1.4-0.6-1.6c-1.9-0.4-3.8,0.9-4.1,2.8c0,0.3-0.1,0.5-0.1,0.8v1.4
	c-1.5-0.6-2.3-2.2-2-3.8c0.2-1.1-0.2-2.2-1-2.9c-1.2-1.1-2.9-1.2-4.3-0.4c-1.5,0.8-2.3,2.4-2,4.1c0.3,1.5,0.7,2.9,1.2,4.3
	c0.1,0.5,0.1,0.9,0.2,1.5C243.3,84.6,240.3,76.9,242.4,70.6L242.4,70.6z M160.7,272.7c-1.4-4.5-1.1-9.3,0.7-13.6
	c1.7-4.4,5.3-7.8,9.7-9.4c-10.2,1.4-20.5,1.3-30.6-0.3c10.6,4.6,13.3,12.8,11.2,23.5C154.7,270.3,157.7,270.4,160.7,272.7z
	 M40,151.8c0.4,1.4,1.3,2.8,1.3,4.3s-0.8,3-1.3,4.4c9.4-1.9,17.3,0.3,22.4,9.8c-1.4-9.1-1.6-18.4-0.4-27.5
	C56.9,151.6,49.1,153.7,40,151.8z M273,151.6c-9.2,2-16.7,0.1-22.2-8.1c1,8.5,1,17-0.2,25.5c5.3-8.5,13-10.4,22.3-8.5
	C270.4,157.6,270.4,154.6,273,151.6z M144.8,61.4c7.6-0.8,15.3-0.8,22.9,0c-7.2-5.6-9-12.8-7-21.6c-3.1,2.9-6,2.7-9,0
	C154.1,48.5,150.9,57.3,144.8,61.4L144.8,61.4z M11.4,160.1c0.4-0.1,0.9-0.1,1.4-0.2c2.1-0.8,4.2-1.6,6.2-2.5
	c0.6-0.2,1.3-0.9,1.3-1.4s-0.7-1.2-1.3-1.5c-1.8-0.9-3.7-1.7-5.6-2.4c-2.7-1-5.8-0.2-7.7,2c-0.9,1-0.9,2.4,0,3.4
	C7.2,159.2,9.2,159.7,11.4,160.1L11.4,160.1z M160.1,300.7c-0.5-2.6-1.4-5-2.7-7.3c-0.3-0.6-1-1.3-1.4-1.3c-0.7,0.2-1.2,0.7-1.5,1.3
	c-0.9,1.7-1.6,3.5-2.4,5.2c-1.1,2.7-0.4,5.7,1.6,7.8c1,1.1,2.7,1.2,3.8,0.2c0.1-0.1,0.2-0.2,0.3-0.3
	C159.3,304.8,160.1,302.8,160.1,300.7L160.1,300.7z M151.8,12.8c0.6,1.5,1.3,3.7,2.2,5.8c0.3,0.6,0.6,1.2,1,1.8
	c0.7,0.9,1.2,0.9,1.9,0.1c0.3-0.3,0.5-0.6,0.7-1c0.8-1.8,1.6-3.6,2.3-5.4c1.1-2.9,0.2-5.3-1.8-7.4c-0.8-1-2.4-1.2-3.4-0.4
	c-0.1,0.1-0.2,0.2-0.3,0.3C152.7,8,152,9.9,151.8,12.8L151.8,12.8z M301.1,160.6c1.9,0,3.8-0.7,5.3-2c1.5-1.4,1.5-3,0-4.3
	c-1.6-1.7-3.9-2.4-6.2-2c-2.5,0.7-4.8,1.6-7.1,2.8c-1.4,0.7-1.4,1.7,0,2.3c2.2,1.1,4.5,2,6.8,3C300.3,160.5,300.8,160.5,301.1,160.6
	L301.1,160.6z M190.7,253.8c-2.3-1.9-5.2-3.2-8.2-3.6c-3.6-0.8-7.3-0.4-10.7,0.9c-5.6,2.4-8.2,6.9-8.5,12.8c0,1.2,0.1,2.5,0.3,3.7
	c0.3-0.2,0.2-0.4,0.2-0.6c-0.1-4.8,1.2-9.2,5-12.4c2.9-2.5,6.5-3.2,10.2-3.3C183.1,251,187.1,251.9,190.7,253.8L190.7,253.8z
	 M253.6,121.9l-0.1,0.1c-3.3,4.8-4.4,10.8-3,16.5c0.9,4.5,4.2,8.2,8.6,9.7c2.7,1,5.7,1.2,8.5,0.5c-1.3-0.2-2.7-0.2-4-0.4
	c-5.2-0.8-9-3.4-11.1-8.3c-1.3-3.3-1.6-7-0.9-10.5C252.1,126.9,252.7,124.4,253.6,121.9L253.6,121.9z M267.5,163.5
	c-0.5-0.1-0.9-0.2-1.4-0.2c-6.6-0.8-12.8,2.7-15,8.5c-1.9,5.2-1.6,11,0.9,15.9c0.5,1.1,1.1,2.1,1.8,3.1c0.1,0,0.2-0.1,0.3-0.1
	c-2.3-4.1-3.3-8.8-2.8-13.5c0.5-5.6,3-9.8,8.2-12.1C262,164,264.8,163.5,267.5,163.5L267.5,163.5z M163.8,44.8
	c-0.6,2-0.7,4.1-0.4,6.1c0.8,5,3.3,8.6,8,10.7c3.7,1.6,7.4,1.6,11.3,1c2.8-0.4,5.5-1.6,7.7-3.4c-0.3,0-0.5,0.1-0.8,0.2
	c-4.1,2-8.6,2.7-13.1,2.1c-5.4-0.6-9.3-3.2-11.5-8.3C163.9,50.6,163.8,47.8,163.8,44.8L163.8,44.8z M45,148.7L45,148.7
	c0.3,0.2,0.6,0.2,0.9,0.3c6.9,1,13.8-2.3,16-9.5c1.1-3.7,1.1-7.6,0-11.3c-0.6-2.4-1.7-4.6-3.2-6.5c0,0.3,0,0.5,0.1,0.6
	c2,3.9,2.9,8.3,2.5,12.7c-0.4,7-4.8,12.1-11.6,13.4C48.2,148.5,46.6,148.5,45,148.7z M58.9,191h-0.2c0.2-0.3,0.4-0.5,0.6-0.8
	c2.5-4,3.7-8.7,3.2-13.4c-0.5-7.8-7.1-13.7-14.9-13.2c-0.9,0.1-1.9,0.2-2.8,0.4c1.4,0,2.8,0.2,4.2,0.4c5.2,0.9,9.1,3.5,11.1,8.5
	c1.2,3.2,1.5,6.6,0.9,9.9C60.5,185.6,59.8,188.3,58.9,191z M122,59c0,0.1,0,0.1-0.1,0.2c0.2,0.2,0.4,0.3,0.6,0.5
	c3.9,2.6,8.6,3.7,13.3,3.2c10.2-0.8,14.9-9.7,12.8-17.8c-0.1,0.9,0,1.8-0.1,2.7c-0.3,7.1-4.7,12.2-11.7,13.5
	c-4.6,0.8-9.3,0.2-13.5-1.7C122.9,59.4,122.5,59.2,122,59z M148.9,267.6c-0.1,0-0.1,0.1-0.2,0.1c0.1-0.9,0.2-1.8,0.3-2.7
	c0.4-6.6-3.4-12.5-9.5-14.3c-5.4-1.6-11.2-1-16.1,1.8c-0.5,0.3-1,0.7-1.5,1c0.3,0.1,0.7,0,1-0.2c4-1.9,8.4-2.6,12.8-2
	c5.6,0.7,9.8,3.4,11.7,8.9C148.2,262.6,148.7,265.1,148.9,267.6L148.9,267.6z M229.9,52.8c2.6-1.2,3.7-4.2,2.5-6.7
	c-0.2-0.4-0.4-0.8-0.7-1.2c-2.4-3-6.2-4.5-10-4c-3.7,0.4-7.3,1.4-10.6,3.1c-1.2,0.6-2.4,1.4-3.6,2.1c0.3,0.2,0.4,0.2,0.5,0.1
	c3.7-1.9,7.7-3.2,11.8-3.8c3.7-0.8,7.6,0.2,10.6,2.6c1.4,1.1,2,2.9,1.5,4.6C231.3,50.8,230.4,51.9,229.9,52.8L229.9,52.8z
	 M266.8,207.1c-0.1,0.1-0.3,0.1-0.4,0.2c0.1,0.2,0.1,0.3,0.2,0.5c1.6,3.2,2.7,6.5,3.5,10c0.9,4,0.9,7.8-1.5,11.4
	c-2.1,3.1-5.2,3.5-7.9,0.9c-0.3-0.3-0.5-0.6-0.7-0.9l-0.3,0.3l1.2,1.5c2.2,2.2,5.3,2.4,7.5,0.2c2.2-2.1,3.5-5,3.6-8.1
	c0-3.1-0.6-6.2-1.9-9.1C269.1,211.6,267.9,209.4,266.8,207.1L266.8,207.1z M45.7,207.5c-2.6,3.7-4.4,8.1-5,12.6
	c-0.8,3.8,0.4,7.8,3,10.7c2.6,3,7.4,2.4,8.7-1.3c-0.4,0.3-0.7,0.6-1,1c-2.3,2.1-5.3,2-7.1-0.6c-1-1.5-1.8-3.1-2.3-4.9
	c-0.9-3.5,0.1-6.9,1.1-10.2C43.9,212.3,44.9,209.9,45.7,207.5L45.7,207.5z M82.3,52.5c-0.3-0.4-0.6-0.7-0.9-1.1
	c-1.5-2.2-1.5-4.4,0.4-6.1c1.8-1.7,4.1-2.8,6.6-3c4.1-0.4,7.9,0.9,11.7,2.1c1.5,0.5,2.9,1.2,4.4,1.8c-0.2-0.3-0.5-0.6-0.8-0.8
	c-3.6-2.2-7.5-3.6-11.6-4.3c-3.6-0.7-7.4,0.3-10.2,2.7c-2.3,1.5-3,4.7-1.5,7C80.9,51.5,81.6,52.1,82.3,52.5L82.3,52.5z M52.4,82.8
	c-1.9-3.8-6.1-4.3-8.8-1.2c-1.9,2.1-3,4.9-3.1,7.7c-0.1,3.8,1.1,7.3,2.5,10.7c0.7,1.7,1.7,3.2,2.5,4.8c0.1,0,0.2-0.1,0.3-0.1
	c-0.1-0.2-0.1-0.4-0.2-0.6c-1.1-3.3-2.4-6.5-3.3-9.8c-1.3-3.9-0.6-8.1,1.7-11.5c2.1-2.8,5.1-3.1,7.6-0.7
	C51.9,82.3,52.1,82.6,52.4,82.8L52.4,82.8z M82.8,259.8C82.8,259.7,82.8,259.7,82.8,259.8c-0.4,0.1-0.7,0.3-1,0.6
	c-2.4,2.1-3,5.2-1.2,7.3c2.4,3,6.2,4.6,10.1,4.2c3.5-0.3,6.9-1.3,10.1-2.8c0.7-0.3,1.4-0.7,2-1c0.6-0.4,1.2-0.8,1.8-1.1
	c-0.2-0.2-0.3-0.2-0.4-0.1c-3.3,1.5-6.7,2.7-10.2,3.4c-4.2,1-8.1,0.6-11.7-2.2c-1.9-1.2-2.6-3.7-1.4-5.7
	C81.5,261.5,82.1,260.7,82.8,259.8L82.8,259.8z M207.6,266.4c0,0.1-0.1,0.1-0.1,0.2c0.2,0.2,0.4,0.4,0.7,0.5
	c4.2,2.8,9.1,4.4,14.1,4.8c3.7,0.3,7.4-1.3,9.7-4.3c1.6-2.2,1.1-5.2-1.1-6.8c-0.3-0.3-0.7-0.5-1.1-0.6c0.2,0.3,0.5,0.4,0.7,0.7
	c2.3,2.3,2.1,5.3-0.5,7.2c-2.5,2.2-5.9,3-9.2,2.4c-3.4-0.7-6.7-1.7-10-2.7C209.7,267.5,208.6,267,207.6,266.4L207.6,266.4z
	 M266.5,105c2.9-3.4,5.5-10.8,5.5-15.5c0-3.2-1.3-6.2-3.6-8.4c-1.9-2-5.1-2-7.1,0c-0.5,0.5-0.9,1.1-1.1,1.7c0.2-0.1,0.3-0.4,0.5-0.6
	c2.6-2.7,5.7-2.4,7.8,0.6c2.1,3,2.8,6.7,2,10.2C269.7,97.1,268.3,101.2,266.5,105L266.5,105z M276.1,153.2c4.5,0.8,8.9,0.5,12.6-2.4
	c3.4-2.6,5.3-6,4.4-10.4c-0.4-2-2.4-5-4.2-5.3c0.1,0.2,0.3,0.3,0.5,0.4c3.1,2.8,3.7,7.4,1.6,10.9c-2,3.3-5.3,5.6-9.1,6.2
	C279.9,153,278,153,276.1,153.2L276.1,153.2z M22.7,135.1c-0.3,0.2-0.7,0.5-1,0.7c-3.5,3.2-3.9,8.6-1,12.3c2.3,3.2,6,5.2,9.9,5.4
	c1.8,0.1,3.6,0.1,5.4-0.1V153h-1.9c-3.9-0.2-7.6-1-10.6-3.8C19.2,145.5,18.4,139.5,22.7,135.1z M177.1,289.3c-4,3.7-8,3.2-10.7,1.7
	c-2.6-1.4-4.6-3.6-5.7-6.3c-1.1-2.9-1.6-6.1-1.4-9.2c-1.2,4.6-0.4,11.1,3.9,14.8c2.2,2,5.1,3,8.1,2.7
	C173.7,292.8,175.9,291.4,177.1,289.3z M289,177.2c3.7-2.1,5.3-6.6,3.7-10.5c-2.7-6.6-10.1-9.2-16.6-7.6l0.1,0.1
	c0.6,0,1.3,0,1.9,0.1c4.3,0.2,8.2,1.4,11.3,4.7c3.2,3.2,3.6,8.2,0.9,11.8C290,176.2,289.4,176.7,289,177.2z M23.2,177.1
	c-4.4-4.3-3.3-9.7-0.4-13c2.5-2.9,5.8-4.2,9.6-4.7c1.3-0.2,2.7-0.2,4-0.3c-2.2-0.3-4.3-0.3-6.5-0.2c-5.2,0.6-9.7,4.7-10.5,9.5
	C18.7,171.9,20.2,175.4,23.2,177.1L23.2,177.1z M135.2,289.1c2,3.9,7.4,5.3,11.5,3.1c5.9-3.1,8.1-9.8,6.6-16.1
	c-0.2,1.8-0.3,4-0.7,6.1c-0.5,3-2.2,5.8-4.6,7.7C144.2,293.2,138.6,292.8,135.2,289.1L135.2,289.1z M153.2,37c0.7-4,0.7-8-1.6-11.7
	s-5.6-6.1-10.3-5.7c-2.6,0.2-4.9,1.7-6.1,4c1.6-1.8,3.9-2.9,6.3-3c4.2-0.1,8.3,2.9,10.1,7.2C152.8,30.7,153.3,33.9,153.2,37
	L153.2,37z M159.2,37.1c0.1-1.5,0.1-2.8,0.2-4c0.2-3.5,1.7-6.9,4.2-9.4c3.8-3.8,9.3-4.3,13.1-0.4c0.1,0.1,0.2,0.1,0.5,0.3
	c-2.5-3.9-7.8-5.2-11.8-2.8c-3.6,2-6.1,5.7-6.5,9.8C158.6,32.8,158.7,35,159.2,37.1L159.2,37.1z M257.5,71.2c-2.2-2.3-5.4-3-8.4-2
	c-2.9,0.8-5,3.2-5.4,6.2c-0.3,2.2,0.6,4.5,2.3,5.9c-1.5-2.8-2.1-5.8,0.1-8.4C249.2,69.1,253.2,69.2,257.5,71.2L257.5,71.2z
	 M71.3,55.2c-2.3,2.1-3.1,5.4-2.1,8.3c0.7,2.9,3.1,5,6,5.5c2.2,0.4,4.9-0.6,5.9-2c-4.1,1.6-6.8,1.4-8.9-0.7S68.6,60.5,71.3,55.2
	L71.3,55.2z M66.6,81.4c1.9-1.7,2.7-4.3,2-6.8c-0.8-3.2-3.2-4.9-6.3-5.6c-2.6-0.6-5.9,0.5-7.2,2.2c5.3-1.9,8.5-1.6,10.9,1.2
	S68.1,78.3,66.6,81.4L66.6,81.4z M241,55.3c1.8,3.4,2.2,6.8-0.2,10c-2.5,3.4-5.8,3.4-9.4,1.9c2.7,2.6,7.1,2.5,9.7-0.2
	c0.1-0.1,0.2-0.3,0.4-0.4C244.4,63.3,244.2,58.3,241,55.3L241,55.3z M231.2,245.7c3.1-1.6,6.1-1.9,8.7,0.6c3.3,3.2,3.2,7,1.2,11.1
	c3.2-3,3.3-8,0.4-11.3c-2.5-2.9-6.9-3.3-9.9-0.8C231.5,245.5,231.4,245.6,231.2,245.7L231.2,245.7z M71.2,257.2
	c-1.7-3.6-2-7.1,0.7-10.3s6-2.9,9.6-1c-2.6-2.9-7.1-3.1-10-0.4c-0.2,0.1-0.3,0.3-0.4,0.4C68.1,248.9,68.1,254.4,71.2,257.2
	L71.2,257.2z M257.4,241c-3.4,1.8-6.7,2.1-9.9-0.2c-3.4-2.5-3.4-5.8-1.8-9.6c-2.7,2.7-2.7,7.1,0,9.8
	C249.2,244.2,254.4,244.3,257.4,241L257.4,241z M55,241c3.1,3.4,8.6,3.2,11.9-0.2c2.5-2.8,2.5-7-0.2-9.7c1.6,3.7,1.8,7.1-1.7,9.7
	C61.8,243.1,58.4,242.8,55,241z M144.8,18.6c-1.9-3.3-5.2-5.7-9-6.4c-2.1-0.7-4.3-0.5-6.3,0.3c-1.3,0.5-2.4,1.4-3.1,2.5
	c1.4-0.7,2.9-1.3,4.4-1.8c2.4-0.6,4.8,0.1,7.1,1C140.5,15.2,142.9,16.7,144.8,18.6L144.8,18.6z M38.9,131.3c-2.8-0.1-5.3,1.8-6,4.5
	c-1.1,4.7,2.5,10.2,7.5,11.1c-0.4-0.2-0.6-0.4-0.8-0.5s-0.5-0.3-0.8-0.5c-3.1-1.9-4.9-5.4-4.7-9.1c0-1.4,0.7-2.8,1.8-3.6
	C36.8,132.5,38,131.9,38.9,131.3L38.9,131.3z M181.1,40.2c0.4-3.1-1.6-6-4.7-6.8c-1.9-0.4-3.9-0.1-5.7,0.8c-2.7,1.2-4.6,3.7-5.2,6.6
	c1.9-3.4,4.5-5.6,8.4-6.2c1.6-0.3,3.3,0.1,4.6,1.1C180,36.6,180.6,38.2,181.1,40.2L181.1,40.2z M273.2,181c3.3,0.3,6.1-2.2,6.4-5.4
	c0-0.1,0-0.1,0-0.2c0.2-2.4-0.6-4.9-2.1-6.8c-1.3-1.6-3.1-2.8-5.1-3.2c0.5,0.4,1,0.8,1.5,1.1c2.8,1.9,4.5,5.1,4.5,8.5
	c0.1,2-1,3.8-2.7,4.7C274.9,180.2,274.1,180.7,273.2,181L273.2,181z M165.4,272.1c1,4.6,5.2,7.7,9.9,7.5c3.3-0.1,6-2.9,5.8-6.3
	c0-0.2,0-0.4,0-0.5c-0.2,0.6-0.3,0.9-0.4,1.3c-0.8,2.8-3.4,4.6-6.3,4.3c-2.8-0.2-5.3-1.6-7.1-3.7C166.6,273.8,166.1,273,165.4,272.1
	L165.4,272.1z M40,165.5c-4.2,0.8-7.5,5.3-7.3,9.7c0.1,3.3,2.8,5.9,6,5.8c0.2,0,0.4,0,0.6,0c-0.3-0.1-0.4-0.2-0.5-0.2
	c-3.9-1.2-5.5-3.9-4.6-7.9C35,169.5,37.2,167.3,40,165.5z M18.4,144.5c-0.6-0.7-1.2-1.3-1.7-2c-2.3-2.8-3.6-6.1-4-9.7
	c-0.3-2.5,0.6-5,2.3-6.8h-0.4c-0.1,0.1-0.2,0.1-0.3,0.2c-1.8,1.6-2.9,3.9-2.8,6.3c0.1,2.6,0.8,5.2,2.2,7.5
	C14.8,142,16.4,143.5,18.4,144.5L18.4,144.5z M273,131.3c0.6,0.2,1,0.3,1.3,0.4c2.7,0.7,4.5,3.3,4.1,6.1c0,1.9-0.7,3.7-1.9,5.2
	c-1.2,1.4-2.7,2.6-3.8,3.7c4.1-0.9,7.2-5.1,6.9-9.8C279.5,133.6,276.7,131.1,273,131.3z M18.4,167.4c-4.5,2.4-7.6,8.7-6.9,13.6
	c0.4,2.2,1.8,4.3,3.4,4.9c-3.1-3.6-2.7-7.5-1.2-11.5C14.8,171.8,16.4,169.5,18.4,167.4L18.4,167.4z M167.4,18.8c2-2,4.5-3.6,7.2-4.6
	c3.9-1.5,7.7-1.9,11.2,1c0.1,0,0.1,0,0.2-0.1c-1.1-1.7-2.8-2.8-4.8-3C176.3,11.1,170.3,14,167.4,18.8L167.4,18.8z M294.4,144.7
	c0.1,0,0.2,0,0.3-0.1c4.3-2.9,6.6-7.9,6.2-13.1c-0.2-2.2-1.4-4.1-3.3-5.2c0.1,0.1,0.1,0.2,0.1,0.3c2.1,2.5,2.4,5.4,1.8,8.5
	C298.7,138.7,296.9,142,294.4,144.7L294.4,144.7z M144.8,294c-0.5,0.4-0.9,0.8-1.4,1.2c-2.4,2-5.2,3.5-8.3,4.2
	c-3.1,0.9-6.4,0.2-8.9-1.9c1,1.7,2.8,2.9,4.8,3.2c3.4,0.7,6.5-0.4,9.4-2.1C142.3,297.6,143.9,296,144.8,294z M294.3,167.6
	c2,2.1,3.6,4.6,4.5,7.4c1.4,3.8,1.6,7.5-1.2,10.9c0,0.2,0.1,0.3,0.2,0.5c0.8-1,1.6-2,2.2-3.1c1.2-2.5,1.2-5.4,0.2-7.9
	C299.4,172.1,297.2,169.4,294.3,167.6L294.3,167.6z M185.9,297.6c-0.8,0.5-1.6,1-2.4,1.4c-2.9,1.2-5.8,0.7-8.6-0.3s-5.3-2.7-7.4-4.8
	c0,0.2,0.1,0.4,0.2,0.5c2.5,3.8,6.7,6.2,11.2,6.5C181.7,301.3,184.5,300,185.9,297.6L185.9,297.6z M147,272.4
	c-0.1,0.1-0.2,0.1-0.3,0.1c-0.1,0.2-0.3,0.4-0.4,0.6c-1.6,2.8-4.4,4.6-7.6,5.1c-2.3,0.6-4.8-0.5-6-2.5c-0.5-0.8-0.9-1.8-1.4-2.8
	c-0.1,2.2,0.8,4.2,2.6,5.5c2.9,1.9,5.9,1.3,8.7-0.3C144.8,276.9,146.4,274.9,147,272.4z M146.8,40.1c0.1,0,0.1,0,0.2-0.1
	c-0.6-1.1-1.2-2.2-1.9-3.2c-2.4-3-6.3-4.3-10-3.2c-2.5,0.8-4.4,4.2-3.8,6.1c1.1-3.5,2.9-5.2,5.7-5.3c2.5-0.1,5,0.8,6.8,2.5
	C144.9,37.9,145.9,39,146.8,40.1L146.8,40.1z M54.9,192.4c-1,0.3-1.9,0.6-2.8,0.8c-4,0.9-9.6-0.1-10.9-5.2h-0.1
	c-0.2,2.5,1.3,4.8,3.6,5.8C48.4,195.3,52.7,194.8,54.9,192.4z M119.9,257.2c-2.7,3.2-3.1,7.8-1,11.4c1.2,1.9,3.5,3,5.2,2.5
	C119.4,270,117.3,264.3,119.9,257.2L119.9,257.2z M30,110.4v0.2c1.9,0.3,3.8,0.6,5.7,1.1c1.4,0.3,2.7,1,4,1.4c2.2,0.6,4.4,1,6.6,1.5
	c0-0.2,0.1-0.3,0.1-0.5c-4.1-1.3-8.1-2.7-12.3-3.8C33,110,31.5,110.4,30,110.4z M201.5,282.7c0.7-1.6,0.9-3.4,0.4-5.1
	c-0.7-2.4-1.5-4.9-2.3-7.3c-0.4-1.3-0.9-2.7-1.4-4c-0.1,0-0.3,0.1-0.4,0.1c0.4,2,0.7,4.1,1.3,6.1C200,275.8,201.8,279,201.5,282.7z
	 M188.1,271.1c2.5,0.3,4.9-1.1,5.8-3.4c1.7-3.5,1.1-7.9-1.2-10.2C194.6,265.8,193.4,269.3,188.1,271.1z M188.2,41.5
	c0.9,0.4,1.8,0.9,2.6,1.4c2.9,2.2,3.2,5.4,2.8,8.7c-0.2,1.3-0.6,2.5-0.9,3.8c2.7-3.2,3-7.8,0.8-11.3
	C192.4,42.4,190.3,41.4,188.2,41.5z M282.7,110.8c-2-0.8-4.3-0.9-6.4-0.1c-2.8,0.9-5.6,1.9-8.4,2.9c-0.6,0.2-1.2,0.5-1.7,0.7
	c1.3,0,2.5-0.2,3.8-0.4C274.3,113.2,278.2,110.5,282.7,110.8L282.7,110.8z M124.2,41.6c-2.4-0.3-4.8,1.1-5.7,3.4
	c-1.6,3.2-1.2,7.7,1.3,10.3C117.6,49.2,118.7,43.2,124.2,41.6z M266.3,197.6c-0.1,0.2-0.1,0.4-0.2,0.6c3.8,1.2,7.6,2.5,11.4,3.7
	c1.7,0.4,3.5,0.3,5.1-0.4c-2.9,0.1-5.5-1-8.2-1.8S269.1,198.3,266.3,197.6z M271.4,124.4c0.2-2.8-1.5-5.4-4.2-6.3
	c-3.2-1.2-7.6-0.5-9.2,1.4C263.4,118.2,268.6,117.6,271.4,124.4L271.4,124.4z M271.4,188c-3.3,5.8-5.3,6.5-13.7,4.6
	c2.5,2.1,5.9,2.8,9,1.7S271.3,191.3,271.4,188L271.4,188z M41.8,204.9c0.1,0.1,0.1,0.2,0.2,0.4c1.2-0.4,2.4-0.9,3.6-1.4
	c3.9-2.1,6.1-6.2,9.7-8.8c-0.2,0-0.5,0-0.7,0.1c-1.7,1.1-3.4,2.4-5,3.7C47.2,201.2,44.9,203.6,41.8,204.9L41.8,204.9z M117.7,55.4
	c0,0.1-0.1,0.1-0.1,0.2c-0.3-0.7-0.7-1.4-1.2-2c-1.5-1.8-3.2-3.6-4.7-5.4s-3-3.8-4.4-5.6c0.3,2.2,1.4,4.3,3,5.9
	C112.7,50.9,115.2,53.1,117.7,55.4z M201.7,30.3c-0.4,2-0.8,4.2-1.4,6.3c-0.3,1.3-1,2.5-1.3,3.8c-0.5,2-0.8,4-1.2,6
	c0.1,0,0.3,0.1,0.4,0.1c1.2-3.6,2.5-7.1,3.6-10.7C202.4,34,202.4,32.1,201.7,30.3z M195.3,257.3c-0.1,0.1-0.2,0.1-0.2,0.2
	c1.1,2.1,2.5,4,4.1,5.6c1.6,1.7,3.2,3.5,4.7,5.4c0.5,0.7,0.9,1.4,1.2,2.1c0.1-0.1,0.3-0.1,0.4-0.2c-0.6-1.4-1-3.1-2-4.3
	C200.9,263,198,260.2,195.3,257.3L195.3,257.3z M195.2,54.9c2-1.8,4.5-4,6.9-6.4c1.8-1.8,2.8-4.2,3.1-6.7c-0.3,0.5-0.4,0.6-0.5,0.8
	c-1.1,2.3-2.6,4.3-4.5,6C198.1,50.3,196.4,52.5,195.2,54.9L195.2,54.9z M110.9,30.3c-0.8,2.2-0.7,4.6,0.1,6.8
	c0.7,2.2,1.5,4.4,2.3,6.7c0.3,1,0.7,1.9,1.1,2.9c0.1,0,0.2-0.1,0.3-0.1c-0.4-2-0.8-4.1-1.3-6.1C112.5,37.1,110.6,34,110.9,30.3
	L110.9,30.3z M107.4,270.4c1.3-2.6,3-4.8,5.2-6.7c2.1-1.8,3.8-4.1,5-6.7h-0.3c-2.4,2.4-4.8,4.8-7.2,7.4
	C108.5,266,107.5,268.1,107.4,270.4L107.4,270.4z M30,201.3v0.5c1.5,0.2,3,0.3,4.5,0.1c2.2-0.5,4.4-1.2,6.6-2
	c1.9-0.6,3.8-1.3,5.6-1.9c0-0.1-0.1-0.3-0.1-0.4c-2.3,0.5-4.6,0.9-6.9,1.5C36.5,200.1,33.5,201.8,30,201.3z M60.8,103.4
	c-2.9,1.3-3.8,3.5-2.9,6.4c0.7,2.2,1.4,4.4,2,6.6c0.2,0.9,0.3,1.7,0.4,2.6h0.4c0.1-1.5,0.1-2.9-0.1-4.4c-0.4-1.9-1.1-3.8-1.7-5.7
	c-0.4-1.2-0.3-2.5,0.4-3.5C59.8,104.7,60.3,104,60.8,103.4L60.8,103.4z M110.8,282.4c-0.1-3,1.1-5.7,2-8.6c0.8-2.5,1.2-5.1,1.9-7.6
	c-0.1,0-0.3-0.1-0.4-0.1l-0.3,0.6c-1,2.9-2.1,5.9-3.1,8.8C110.1,277.7,110.1,280.2,110.8,282.4L110.8,282.4z M41.1,123.9
	c0.7-1.2,1.5-2.3,2.4-3.3c2.4-2,5.3-2.3,8.3-1.7c1,0.2,2,0.5,3.2,0.8c-2.9-2.4-6.9-2.9-10.3-1.3C42.5,119.3,41.1,121.5,41.1,123.9
	L41.1,123.9z M270.4,107.5c-0.1-0.2-0.2-0.3-0.3-0.5c-1.5,0.6-3,1.3-4.4,2.2c-1.7,1.5-3.4,3-4.9,4.7c-1.2,1.1-2.3,2.2-3.5,3.3
	c0.1,0.1,0.2,0.3,0.3,0.4c1.8-1.2,3.5-2.5,5.1-3.9c2-1.8,3.6-4,6.1-5.3C269.3,108.1,269.8,107.8,270.4,107.5L270.4,107.5z
	 M257,194.6L257,194.6c2.2,2.5,4.4,4.9,6.7,7.2c1,0.9,2.1,1.7,3.3,2.3c0.9,0.4,1.8,0.7,2.8,0.9c0.1-0.1,0.1-0.2,0.2-0.3
	c-3.2-1.3-5.4-3.9-7.8-6.2C260.6,197.1,258.7,195.9,257,194.6z M251.6,208.9l0.3,0.3c2.8-1.3,3.6-3.5,2.6-6.5c-0.7-2-1.3-4-1.9-6
	c-0.2-1-0.4-2-0.4-3c-0.3,0.6-0.4,1.3-0.5,2c-0.1,2.6,0.5,5.2,1.6,7.5c0.9,1.8,0.5,3.9-1,5.2C252.2,208.7,251.9,208.9,251.6,208.9z
	 M42.1,107.5c1,0.5,2,1.1,2.9,1.8c1.7,1.5,3.3,3,4.9,4.6c1.5,1.5,3.3,2.7,5.2,3.5c0-0.2-0.1-0.4-0.3-0.5c-2.2-2.2-4.3-4.3-6.6-6.5
	C46.6,108.8,44.4,107.7,42.1,107.5z M251.9,118.2c0.8-2.7,1.6-5.6,2.5-8.5c0.1-0.5,0.3-0.9,0.4-1.4c0.5-2.3-0.9-4.5-3.2-5.1
	c0.2,0.2,0.4,0.4,0.6,0.5c1.4,1.5,2.1,3.2,1.2,5.2c-0.2,0.4-0.3,0.9-0.5,1.3C251.9,112.9,251.3,115.7,251.9,118.2z M118.2,60.7
	c-1.5-0.2-3-0.6-4.5-1c-1.8-0.5-3.6-1.3-5.4-1.8c-2.2-0.5-4.4,0.9-4.9,3.1c2-2.4,4.3-2.4,6.8-1.2c0.3,0.1,0.6,0.3,0.9,0.4
	C113.4,61.1,115.9,61.3,118.2,60.7L118.2,60.7z M118.4,251.9c-0.3-0.1-0.7-0.1-1-0.2c-2.6-0.3-5.2,0.1-7.6,1.3c-2.2,1-4.2,1-6-0.9
	c-0.2-0.2-0.4-0.3-0.6-0.5c1.4,2.9,3.7,3.9,6.4,2.8C112.4,253.2,115.4,252.4,118.4,251.9L118.4,251.9z M60.2,193.7
	c-0.1,0.9-0.2,1.8-0.4,2.7c-0.7,2.3-1.4,4.6-2.1,7s0.6,5.1,2.9,5.6c-2.3-2-2.5-4.3-1.2-6.8c0.2-0.3,0.2-0.7,0.4-1
	C60.9,198.9,61,196.2,60.2,193.7L60.2,193.7z M193.9,251.9c2.3,0.6,4.5,1.1,6.6,1.7c1.1,0.3,2.2,0.9,3.4,1.2
	c2.4,0.6,4.7-0.9,5.3-3.3l0,0c-2.2,2.9-4.7,2.6-7.4,1.3l-0.9-0.3C198.7,251.7,196.3,251.5,193.9,251.9L193.9,251.9z M194.4,60.9
	c0.2,0.1,0.3,0.1,0.5,0.1c2.6,0.3,5.2,0,7.5-1.1s4.4-1.2,6.4,0.8c0.1,0.1,0.2,0.1,0.6,0.2c-0.2-0.4-0.4-0.8-0.7-1.1
	c-1.5-1.8-3.1-2.2-5.6-1.4C200,59.2,197.1,60.1,194.4,60.9L194.4,60.9z M20.2,150.3c-6.7-3.5-11.1-9.2-14.4-15.8
	C8.3,141.9,12.7,147.5,20.2,150.3L20.2,150.3z M150.4,292.1c-3.5,6.6-9.1,11-15.6,14.3C142.1,304,147.7,299.6,150.4,292.1
	L150.4,292.1z M292.5,162.1c6.3,3.4,10.6,8.8,13.9,15.1C304,170.2,299.7,164.8,292.5,162.1z M162.2,292.3
	c1.9,6.6,8.8,12.3,15.4,14.1C171.1,303.1,165.6,298.8,162.2,292.3L162.2,292.3z M177.5,6.4c-6.1,1.2-14.6,9-15.3,14.2
	C165.6,14,171.1,9.7,177.5,6.4L177.5,6.4z M47.3,182.1c1.3,2.6,4.3,3.8,7.1,3c2.7-0.9,4.5-3.6,4.1-6.4
	C56.4,184.8,51.3,185.4,47.3,182.1z M182.3,265c2.3-0.8,3.7-4.6,2.9-6.8c-0.8-2.8-3.5-4.6-6.4-4.3
	C184.7,257.1,185.7,259.9,182.3,265L182.3,265z M130.3,265c-1.8-1.7-2.5-4.2-1.8-6.6c0.8-2.5,2.9-3.5,5.1-4.5
	c-3-0.2-5.8,1.8-6.5,4.8C126.7,261.3,128,263.9,130.3,265L130.3,265z M253.9,133.8c1.9-5.8,6.6-7.2,11.1-3.8
	c-0.8-2.1-3.8-3.5-6.4-2.9C255.6,127.9,253.6,130.7,253.9,133.8z M292.3,150.3c7.3-2.7,11.6-8.1,14.1-15.2
	C303.1,141.4,298.8,146.8,292.3,150.3L292.3,150.3z M134.7,6.3c11.7,7.1,10.6,7.2,15.4,13.8C149.3,15.1,140.9,7.5,134.7,6.3
	L134.7,6.3z M19.9,162.1c-6.5,2.1-12.2,8.7-13.8,15.1C9.3,170.9,13.6,165.6,19.9,162.1L19.9,162.1z M133.8,58.9
	c-2.3-0.8-4.3-1.9-5.2-4.3s-0.1-4.5,1.5-6.8c-2.8,1.7-3.7,5.4-2,8.2C129.3,58,131.5,59.2,133.8,58.9L133.8,58.9z M265.2,182.1
	c-5.3,3.5-8.8,2.4-11.2-3.4c-0.5,2.6,1.3,5.3,4,6.3C260.8,185.9,263.8,184.7,265.2,182.1L265.2,182.1z M178.4,58.9
	c3.1,0.3,6.1-1.6,6.9-4.7c0.6-2.6-0.7-5.2-3-6.4c1.7,2,2.4,4.1,1.6,6.6S180.9,58,178.4,58.9L178.4,58.9z M47.4,130.1
	c4.3-3.3,9.1-2.3,11.1,3.6c0.3-2.9-1.5-5.5-4.2-6.4C51.5,126.4,48,128,47.4,130.1L47.4,130.1z M253.3,62.6c-1.8,1.1-2,2.2-0.9,3.5
	c0.4,0.5,0.9,1,1.5,1.3c1.8,1,3.6,1.8,5.5,2.6c2,0.7,4.1,1.2,6.1,1.7c0-0.1,0.1-0.2,0.1-0.4c-0.5-0.2-1-0.3-1.5-0.5
	c-3.4-1.5-6.9-2.8-10.3-4.5C251.9,65.4,251.9,64.5,253.3,62.6L253.3,62.6z M59.5,249.5c1.5-1.1,1.6-2,0.7-3.2
	c-0.5-0.6-1.1-1.1-1.8-1.5c-2.6-1.2-5.3-2.3-8-3.3c-1.2-0.4-2.4-0.5-3.6-0.8c0.3,0.4,0.7,0.4,1.1,0.6c3.6,1.5,7.2,3,10.8,4.6
	C60.3,246.7,60.4,247.6,59.5,249.5L59.5,249.5z M249.9,59.5c-1.9,1.5-2.7,1.5-3.8-0.4c-1.2-2-2.2-4.1-3-6.3c-0.8-1.7-1.4-3.5-2-5.3
	c-0.1,0.3-0.2,0.5-0.1,0.7c0.6,3.4,1.8,6.6,3.4,9.6c0.5,1,1.1,1.8,1.9,2.6C247.5,61.6,248.8,61.3,249.9,59.5L249.9,59.5z
	 M265.6,240.8c-2.9,0.3-5.8,1.2-8.4,2.5c-1.7,0.8-3.3,1.8-4.8,3c-1.3,1.1-0.9,2.4,0.7,3.3c-1.2-1.9-1-2.6,0.9-3.8
	c0.3-0.2,0.7-0.4,1.1-0.6C258.7,243.7,262.2,242.2,265.6,240.8z M46.5,72h0.8c3.6-0.6,7-1.9,10.2-3.6c1-0.6,1.9-1.3,2.6-2.1
	c1-1.1,0.7-2.1-0.6-2.9c0.8,2,0.7,2.3-1.2,3.5c-1.4,0.8-2.9,1.5-4.4,2.2C51.7,70.1,49.2,71,46.5,72z M62.6,59.5
	c1,1.8,2.3,2.1,3.6,0.9c0.6-0.5,1.1-1.1,1.4-1.8c1-2,1.9-4,2.7-6.1c0.6-1.7,0.9-3.5,1.4-5.3c-0.1,0-0.2-0.1-0.3-0.1
	c-0.2,0.7-0.4,1.3-0.7,2c-1.4,3.3-2.8,6.7-4.4,9.9C65.3,61,64.5,61,62.6,59.5z M240.8,265.2c0.1,0,0.2,0.1,0.3,0.1l0.6-1.5
	c1.3-3.1,2.5-6.3,3.9-9.3c1.2-2.5,2.1-2.7,4.1-1.3c-0.3-1-1.5-1.6-2.5-1.3c-0.2,0.1-0.5,0.2-0.7,0.4c-0.7,0.5-1.2,1.1-1.6,1.9
	c-1,2.1-2,4.2-2.8,6.3C241.6,262.1,241.1,263.6,240.8,265.2z M71.9,265.4C72,265.4,72,265.4,71.9,265.4l0.1-0.7
	c-1-3.1-1.9-6.2-3.1-9.3c-0.6-1.3-1.4-2.5-2.5-3.4c-1.1-1-2.5-0.5-3.1,0.9c1.7-1.3,2.4-1.3,3.5,0.6c1,1.8,1.9,3.6,2.7,5.5
	C70.3,261.2,71.1,263.3,71.9,265.4L71.9,265.4z M25.4,122.3c2.8-4.9,7.7-6.3,12.4-8.4C31.9,114.3,25.9,118.1,25.4,122.3L25.4,122.3z
	 M122,26c-4.4,0.4-8.1,8.2-7.9,11.7C116.1,33.3,117.4,28.7,122,26z M286.9,190.6c-1.4,2-3.2,3.6-5.3,4.7c-2.1,1-4.3,2-6.6,3.1
	C281.2,197.5,286,194.6,286.9,190.6L286.9,190.6z M198.4,275.1c-1.9,4.4-3.5,9-7.9,11.8C194.9,285.9,197.7,280.4,198.4,275.1
	L198.4,275.1z M198.5,37.9c-0.6-5.8-4.1-11.5-8.1-12.1C194.9,28.6,196.4,33.3,198.5,37.9L198.5,37.9z M267.7,234.6
	c-1.6,1.9-3.5,3.4-6.1,3.5c-2.5,0-4.9-1.3-6.2-3.4c0.5,2.3,2.8,4,5.4,4.3C263.8,239.2,266.6,237.4,267.7,234.6L267.7,234.6z
	 M267.7,77.7c-1-2.6-3.5-4.3-6.3-4.4c-2.7,0-5.3,1.8-5.9,4.1C259.1,72.9,264.2,73.2,267.7,77.7L267.7,77.7z M121.8,286.8
	c-4.4-2.8-5.9-7.3-7.8-11.7C114.3,279.1,117.3,286.2,121.8,286.8L121.8,286.8z M77.4,255.4c-2.5,1-4.1,3.4-4.1,6.1
	c0,2.6,1.9,5.4,4.1,6.1C73.1,262,73,259.8,77.4,255.4L77.4,255.4z M77.2,57.2c-2-1.4-3.1-3.8-3-6.2c0.1-2.5,1.6-4.4,3.5-5.9
	c-2.6,1-4.4,3.6-4.4,6.4C73.3,54,74.9,56.3,77.2,57.2L77.2,57.2z M235.1,255.4c2,1.4,3.2,3.7,3.1,6.2c-0.1,2.6-1.6,4.5-3.5,6.1
	c2.7-1.1,4.5-3.7,4.4-6.6C239,258.6,237.5,256.4,235.1,255.4L235.1,255.4z M287,122c-0.9-4.8-7.8-7.8-12.1-8.1
	C279.4,115.9,284.1,117.3,287,122z M57.1,234.8c-3.7,4.4-7,4.4-12.1,0.3c0.6,2.4,3.8,4,5.8,4C53.6,239.1,56.1,237.4,57.1,234.8
	L57.1,234.8z M57,77.5c-0.9-2.5-3.3-4.3-6-4.3c-2.6,0-5,1.6-6.1,4C50.2,73.1,53.2,73.1,57,77.5L57,77.5z M235.2,57.3
	c2.2-0.6,4-3.4,4-6.1s-2.4-5.7-4.2-6.1C238.6,48.4,240,52.9,235.2,57.3L235.2,57.3z M25.5,190.6c1,4.3,6.8,7.2,11.8,7.7
	C33,196.3,28.3,195,25.5,190.6L25.5,190.6z M33.7,190.4c-1,1.9-0.3,4.3,1.6,5.4c1.7,0.7,3.4,1.4,5.1,1.9c0-0.1,0.1-0.2,0.1-0.3
	c-1.2-0.6-2.4-1.3-3.6-1.8c-1.5-0.4-2.7-1.7-2.9-3.3C34,191.7,33.9,191,33.7,190.4L33.7,190.4z M33.8,121.7c-0.1-2.9,1.3-4.6,4-5.4
	c1-0.4,1.9-0.9,2.8-1.5c-1.3,0.2-2.6,0.5-3.8,1c-0.3,0.1-0.7,0.2-1,0.4C33.7,117.2,32.8,119.6,33.8,121.7L33.8,121.7L33.8,121.7z
	 M115,271.9c-0.1,0.1-0.2,0.1-0.3,0.2l1.2,3.9c0,0.2,0.1,0.3,0.2,0.4c0.9,2.1,3.9,3.3,5.6,2.1c-0.1,0-0.1-0.1-0.2-0.1
	s-0.4-0.1-0.6-0.1c-2,0.1-3.8-1.2-4.3-3.1C116.2,274.2,115.6,273.1,115,271.9z M271.9,197.4c0,0.1,0.1,0.2,0.1,0.3
	c1.5-0.5,3-0.9,4.5-1.5c2.1-0.9,3.2-3.3,2.3-5.5c0-0.1-0.1-0.1-0.1-0.2c0,0.2-0.1,0.3-0.1,0.5c-0.1,2.3-1,3.9-3.3,4.7
	C274.1,196.2,273,196.8,271.9,197.4L271.9,197.4z M121.5,34c-1.9-0.8-4.1,0.1-5.1,1.9c-0.7,1.6-1.3,3.2-1.7,4.9
	c0.1,0,0.2,0.1,0.3,0.1c0.6-1.4,1.3-2.7,2-4c0.4-0.7,0.9-1.4,1.5-1.9C119.5,34.6,120.5,34.3,121.5,34z M278.7,121.6
	c0.6-1.3,0.5-2.8-0.4-4c-1.5-2.2-4.1-1.8-6.2-2.8c1,0.7,2.1,1.3,3.2,1.8C277.8,117.4,278.6,119.2,278.7,121.6L278.7,121.6z
	 M197.5,40.9c0.1,0,0.2-0.1,0.3-0.1c-0.5-1.5-0.9-3.1-1.5-4.6c-0.8-1.9-3.5-3.3-5.6-2c2.8-0.2,4.4,1.1,5.3,3.6
	C196.4,38.9,196.9,40,197.5,40.9L197.5,40.9z M197.7,271.9c-0.1,0-0.2-0.1-0.3-0.1c-0.6,1.3-1.3,2.6-1.9,4c-0.5,1.5-1.8,2.5-3.4,2.7
	c-0.4,0.1-0.8,0.1-1.4,0.2c2.1,0.9,4.5-0.1,5.5-2.2C196.8,275,197.2,273.4,197.7,271.9L197.7,271.9z"/>
<path d="M53.6,83.4c0.4,1.1,0.6,2.3,0.4,3.5c-0.1,0-0.2,0-0.3,0.1c-0.4-0.8-0.7-1.6-1.1-2.4C52.9,84.2,53.3,83.8,53.6,83.4z"/>
<path d="M73.5,155.7c-0.1-45.8,37-83,82.8-83.1s83,37,83.1,82.8c0.1,45.8-37,83-82.8,83.1S73.6,201.6,73.5,155.7
	C73.5,155.8,73.5,155.8,73.5,155.7z M234.8,155.8c0.2-43-34.8-78.1-78.1-78.4c-43.1-0.2-78.5,34.7-78.8,77.5
	c-0.3,43.2,34.4,78.6,77.6,79.1C199.5,234.6,235,199,234.8,155.8L234.8,155.8z"/>
<path d="M240,155.8c0-2.1,1.3-3.5,3.3-3.4c1.8,0,3.2,1.4,3.2,3.2v0.1c0.2,1.8-1.1,3.4-2.9,3.6c-0.2,0-0.4,0-0.6,0
	c-1.7,0-3.1-1.4-3-3.2C240,156.1,240,155.9,240,155.8z"/>
<path d="M226.1,108.8c0-1.8,1.4-3.3,3.2-3.3l0,0c1.9,0.1,3.4,1.6,3.4,3.5c0,1.8-1.4,3.2-3.2,3.3
	C227.7,112.2,226.2,110.7,226.1,108.8z"/>
<path d="M180.1,239.9c-0.1,1.9-1.6,3.4-3.5,3.4c-1.8,0-3.3-1.5-3.3-3.3c0.1-1.9,1.6-3.3,3.5-3.3c1.8-0.1,3.2,1.3,3.3,3.1
	C180.1,239.8,180.1,239.9,180.1,239.9z"/>
<path d="M160.6,66c1.8,0.1,3.2,1.6,3.1,3.4c-0.1,1.8-1.6,3.2-3.4,3.1c-1.8-0.1-3.2-1.6-3.1-3.4c0-1.7,1.4-3.1,3.1-3.1
	C160.5,66,160.5,66,160.6,66z"/>
<path d="M116.4,80.7c-0.1,1.9-1.6,3.4-3.5,3.4c-1.8,0-3.2-1.5-3.2-3.3l0,0c0.1-1.9,1.6-3.4,3.5-3.4c1.7,0,3.2,1.3,3.2,3.1
	C116.4,80.6,116.4,80.6,116.4,80.7z"/>
<path d="M73,134.7c-1.8,0-3.2-1.5-3.2-3.3l0,0c-0.1-1.8,1.4-3.3,3.2-3.4c1.8-0.1,3.3,1.4,3.4,3.2C76.5,133.1,75,134.6,73,134.7
	L73,134.7z"/>
<path d="M160.4,245.5c-1.8,0-3.4-1.4-3.4-3.3l0,0c0.2-1.9,1.9-3.3,3.8-3.1c1.7,0.2,3,1.5,3.1,3.2
	C163.8,244.2,162.3,245.6,160.4,245.5z"/>
<path d="M237,184.7c1.8,0,3.2,1.5,3.2,3.3l0,0c0,1.9-1.5,3.5-3.5,3.5l0,0c-1.7-0.1-3.1-1.6-3.1-3.3
	C233.6,186.3,235.1,184.8,237,184.7z"/>
<path d="M131.3,237.7c0,1.8-1.4,3.2-3.2,3.2H128c-1.9,0.1-3.4-1.4-3.5-3.3v-0.1c0-1.7,1.4-3.2,3.1-3.2h0.1c1.9-0.1,3.5,1.3,3.6,3.2
	C131.3,237.6,131.3,237.7,131.3,237.7z"/>
<path d="M102.9,221.3c0,1.8-1.5,3.3-3.3,3.3c-1.9-0.1-3.4-1.6-3.4-3.5c0-1.8,1.3-3.2,3.1-3.3C101.2,217.9,102.8,219.4,102.9,221.3z"
	/>
<path d="M240.3,123.7c0,1.8-1.4,3.2-3.2,3.3c-1.9-0.1-3.3-1.6-3.3-3.5c-0.1-1.8,1.3-3.2,3.1-3.3h0.1c1.8,0,3.3,1.5,3.3,3.3
	C240.3,123.6,240.3,123.7,240.3,123.7z"/>
<path d="M147.3,241.5c0,1.8-1.4,3.3-3.2,3.3l0,0c-1.8,0-3.3-1.4-3.3-3.2s1.4-3.3,3.2-3.3S147.3,239.7,147.3,241.5z"/>
<path d="M244.9,139.5c0,1.8-1.5,3.3-3.3,3.3c-1.9-0.1-3.4-1.7-3.3-3.6c0-1.8,1.5-3.3,3.3-3.3c1.9,0.1,3.4,1.6,3.3,3.5
	C244.9,139.5,244.9,139.5,244.9,139.5z"/>
<path d="M88.4,98.8c1.8,0,3.3,1.5,3.3,3.3c-0.1,1.9-1.6,3.4-3.5,3.4c-1.8,0-3.2-1.5-3.2-3.3l0,0c-0.1-1.8,1.4-3.3,3.2-3.4
	C88.3,98.8,88.4,98.8,88.4,98.8z"/>
<path d="M88,205.9c1.9,0,3.4,1.5,3.4,3.3c0,0,0,0,0,0.1c0.1,1.8-1.3,3.2-3.1,3.3h-0.1c-1.9-0.1-3.5-1.7-3.5-3.6
	C84.8,207.3,86.3,206,88,205.9z"/>
<path d="M79.3,198.7c-1.9-0.1-3.4-1.6-3.4-3.5c0-1.8,1.5-3.2,3.3-3.2l0,0c1.9,0.1,3.3,1.6,3.3,3.5c0.1,1.7-1.1,3.1-2.8,3.2
	C79.6,198.7,79.5,198.7,79.3,198.7z"/>
<path d="M215.7,215.7c0-1.9,1.5-3.4,3.4-3.4c1.8,0,3.2,1.4,3.2,3.2v0.1c0,1.9-1.6,3.4-3.5,3.4C217.1,219,215.7,217.6,215.7,215.7
	C215.7,215.8,215.7,215.8,215.7,215.7z"/>
<path d="M116.3,230.8c0,1.8-1.5,3.3-3.3,3.3c-1.9,0-3.4-1.5-3.5-3.4c0-1.8,1.5-3.3,3.3-3.3C114.7,227.4,116.3,228.9,116.3,230.8z"/>
<path d="M144,73.3c-1.8,0-3.3-1.4-3.3-3.2l0,0c0-1.9,1.6-3.3,3.5-3.3l0,0c1.7-0.1,3.2,1.2,3.3,3c0,0.1,0,0.2,0,0.2
	C147.5,71.9,145.9,73.4,144,73.3L144,73.3z"/>
<path d="M206.7,81.9c1.9,0.1,3.3,1.5,3.4,3.4c0,1.8-1.4,3.2-3.2,3.2h-0.1c-1.9-0.1-3.4-1.6-3.4-3.5c-0.1-1.7,1.2-3,2.9-3.1
	C206.5,81.9,206.6,81.9,206.7,81.9z"/>
<path d="M244.8,172.2c0.1,1.8-1.3,3.4-3.1,3.5c-0.1,0-0.1,0-0.2,0c-1.7,0-3.2-1.3-3.2-3.1c0-0.1,0-0.2,0-0.2c-0.1-1.8,1.2-3.4,3-3.5
	c0.1,0,0.2,0,0.3,0c1.8,0,3.2,1.4,3.2,3.2C244.8,172.1,244.8,172.2,244.8,172.2z"/>
<path d="M73.3,147.5c0,1.8-1.5,3.2-3.2,3.2s-3.2-1.5-3.2-3.2c0-1.9,1.5-3.4,3.3-3.4c0,0,0,0,0.1,0c1.7,0,3.1,1.4,3.1,3.1
	C73.3,147.4,73.3,147.4,73.3,147.5z"/>
<path d="M219,92.6c1.9,0,3.4,1.5,3.5,3.4c0,1.8-1.3,3.2-3.1,3.3c-1.9,0-3.5-1.5-3.6-3.4C215.8,94.1,217.2,92.7,219,92.6z"/>
<path d="M103,90.2c-0.1,1.9-1.5,3.3-3.4,3.4c-1.8,0-3.2-1.4-3.2-3.2v-0.1c0.1-1.9,1.6-3.4,3.5-3.4C101.7,87,103,88.5,103,90.2z"/>
<path d="M192.5,80.2c-1.9,0.1-3.4-1.4-3.5-3.3l0,0c0-1.7,1.3-3.2,3.1-3.2c0.1,0,0.2,0,0.2,0c1.9,0,3.5,1.5,3.5,3.4
	c0,1.7-1.4,3.1-3.1,3.1C192.7,80.2,192.6,80.2,192.5,80.2z"/>
<path d="M73.1,176.7c1.9,0.1,3.4,1.8,3.3,3.7c0,1.8-1.5,3.3-3.3,3.3s-3.3-1.5-3.3-3.3c0-0.1,0-0.2,0-0.3
	C69.8,178.2,71.3,176.7,73.1,176.7z"/>
<path d="M128.2,70.6c1.7,0,3.2,1.4,3.2,3.1v0.1c0,1.9-1.5,3.4-3.4,3.4c-0.1,0-0.1,0-0.2,0c-1.8,0-3.2-1.4-3.2-3.2v-0.1
	C124.8,72,126.3,70.6,128.2,70.6z"/>
<path d="M206.4,229.7c-1.7,0-3.1-1.4-3.1-3.1c0-0.1,0-0.2,0-0.3c0.1-1.9,1.7-3.3,3.5-3.2c0,0,0,0,0.1,0c1.7,0,3.1,1.3,3.1,3
	c0,0.1,0,0.1,0,0.2C210,228.3,208.4,229.8,206.4,229.7C206.5,229.7,206.4,229.7,206.4,229.7z"/>
<path d="M192.2,237.9c-1.8,0-3.3-1.4-3.3-3.2l0,0c0.1-1.9,1.6-3.4,3.5-3.4c1.7-0.1,3.2,1.2,3.3,3c0,0.1,0,0.2,0,0.2
	c0,1.9-1.5,3.4-3.4,3.4C192.3,237.9,192.3,237.9,192.2,237.9z"/>
<path d="M229.4,199.4c1.7-0.1,3.2,1.2,3.3,3c0,0.1,0,0.2,0,0.2c0,1.9-1.4,3.4-3.3,3.5c-1.9,0-3.3-1.5-3.3-3.3
	C226.1,200.9,227.6,199.4,229.4,199.4z"/>
<path d="M82.6,115.9c0,1.9-1.5,3.5-3.5,3.5l0,0c-1.7,0-3.1-1.5-3.1-3.2v-0.1c0-1.9,1.5-3.4,3.4-3.5
	C81.2,112.7,82.7,114.1,82.6,115.9L82.6,115.9z"/>
<path d="M73.3,164.1c0,1.8-1.4,3.2-3.2,3.2c-1.9-0.1-3.3-1.7-3.3-3.5c0.1-1.7,1.4-3.1,3.1-3.3c1.8-0.1,3.4,1.4,3.4,3.2
	C73.3,163.9,73.3,164,73.3,164.1z"/>
<path d="M173.5,71.5c0-1.7,1.3-3.2,3.1-3.2c0.1,0,0.2,0,0.2,0c1.8-0.1,3.3,1.4,3.4,3.2c0.1,1.8-1.4,3.3-3.2,3.4
	C175.1,75,173.6,73.5,173.5,71.5C173.5,71.6,173.5,71.6,173.5,71.5z"/>
<path d="M13.6,155.7c0,1.2-0.9,2.1-2.1,2.2c-1.1,0-2.1-0.9-2.1-2v-0.1c0-1.2,0.9-2.1,2.1-2.2C12.7,153.7,13.6,154.6,13.6,155.7z"/>
<path d="M155.9,302.9c-1.1,0.1-2-0.8-2.1-1.9c0-0.1,0-0.1,0-0.2c0-1.2,0.9-2.1,2.1-2.2c1.1,0,2.1,0.9,2.1,2v0.1
	c0.1,1.1-0.7,2.1-1.8,2.2C156.1,302.9,156,302.9,155.9,302.9z"/>
<path d="M156.1,10.1c1.1,0,2.1,0.9,2.1,2v0.1c0,1.2-0.9,2.1-2.1,2.1c-1.2-0.1-2.1-1-2.1-2.2c0-1.1,0.9-2,2-2
	C156.1,10.1,156.1,10.1,156.1,10.1z"/>
<path d="M301,158.4c-1.2,0-2.1-1-2.1-2.2s1-2.1,2.2-2.1c1.1,0,2,0.9,2,2c0,0.1,0,0.1,0,0.2c0.1,1.1-0.7,2-1.8,2.1
	C301.2,158.4,301.1,158.4,301,158.4z"/>
<path d="M203,128.3c-0.7-0.9-1.3-1.8-2-2.7c-5.5-8-13.1-14.3-21.9-18.3c-28.1-13.2-61.6-1.1-74.7,27c-4.4,9.4-6.1,19.9-5,30.3
	c2.1,17.1,10.3,30.7,24.5,40.3c13.4,9.1,28.3,11.6,44.1,8.1c18.7-4.3,33.9-17.9,40.3-36c3.5-9.9,4.1-20.6,1.9-30.8
	c-1.1-5.1-3-10.1-5.5-14.7 M208.6,160.1c-0.6,15.4-6.7,28.3-18.3,38.4c-22.2,19.4-55.8,17.1-75.2-5c-19.4-22.2-17.1-55.8,5-75.2
	c2.1-1.9,4.4-3.6,6.8-5.1c27.7-17.3,59.9-5.4,73.2,16.3l0,0l2.2,3.6l0,0C206.8,141.4,209,150.7,208.6,160.1L208.6,160.1z"/>
<path d="M97.2,186.7c1.4-0.5,3,0,3.8,1.3c0.7,1.3,0.3,2.6-1.7,4.3c1.4,0.9,2.8,1.9,2.5,3.8c-0.1,0.8-0.5,1.6-1,2.3
	c-1.3,1.5-4.7,1.2-5.9-0.4c-1.3-1.8-0.8-3.4,1.9-5.1c-1.4-1.1-2.8-2.2-2-4.3C95.1,187.5,96.1,186.8,97.2,186.7
	c-1.2,0.4-1.8,1.6-1.4,2.8c0.3,1.2,1.3,2.1,2.5,2.4c0.3,0,0.6-0.1,0.8-0.2c0.9-1,1.1-2.5,0.5-3.7C99.3,187,98.2,186.5,97.2,186.7z
	 M95.6,196.1c-0.1,1.3,0.6,2.6,1.9,3.1c1,0.3,2.1,0,2.6-0.9c0.7-1.1,0.6-2.6-0.3-3.6c-1.6-1.8-3.2-1.7-4,0.3
	C95.7,195.4,95.7,195.8,95.6,196.1z"/>
<path d="M89.8,160.1c-1.4,0.6-2.9,0.2-3.9-0.9c-1.1-1.3-1.3-3.1-0.6-4.7c0.8-1.9,3-2.8,4.9-1.9c1.1,0.5,1.9,1.5,2.2,2.6
	c0.9,3.4-0.2,6.9-2.8,9.2c-0.1,0.2-0.3,0.3-0.5,0.3c0.7-1.5,1.4-3.1,2.1-4.6c-0.1-0.1-0.2-0.1-0.3-0.2
	C90.6,159.9,90.2,160,89.8,160.1c1.6-1.9,1.9-4.5,0.8-6.7c-0.4-0.9-1.5-1.3-2.4-0.9c-0.3,0.2-0.6,0.4-0.8,0.8
	c-0.7,1.2-1.1,2.5-0.9,3.9C86.5,159.3,87.6,160.3,89.8,160.1z"/>
<path d="M158.3,94c1.7-2.2,3.5-4.3,5-6.5c0.6-0.9,0.9-1.9,1-3c0.2-1.5-0.9-3-2.4-3.2c-0.1,0-0.2,0-0.4,0c1.9-0.5,3.8,0.6,4.3,2.5
	c0.2,0.8,0.1,1.7-0.2,2.5c-0.8,1.4-1.8,2.7-3,3.8c-0.8,0.8-1.7,1.5-2.6,2.2c2.6,0.7,4.7,0.3,5.7-1c0,0,0.1,0.1,0,0.1
	c-0.4,2.6-0.4,2.6-3,2.6H158.3z"/>
<path d="M214,187.5l3.3-6c0.1,0,0.7,0.1,0.7,0.1v8.8c0.1,0.1,0.3,0.2,0.4,0.3c0.5-0.4,1-0.7,1.6-1.1v2.3l-1.8-1.3
	c-0.2,1.5-0.2,2.6,1.2,3.4h-3.6c0.3-0.8,0.6-1.8,1-3h-5.2c0.3-0.2,0.5-0.5,0.7-0.8c0.2,0.6,0.3,1.2,0.2,1.8h3.5v-7.7
	C215.3,185.5,214.6,186.5,214,187.5z"/>
<path d="M223.8,148.5c2.1,0.1,3.3,1,3.6,2.3c0.4,1.5-0.2,2.5-2,3.6c2.4,1.4,3,2.9,2.1,4.9c-1.1,2.3-4.9,2.9-6.7,1.2
	c-1.2-1.1-0.8-2.8,0.9-3.4c-0.1,0.2-0.1,0.4-0.2,0.5c-0.7,1.2-0.3,2.7,0.9,3.3c1,0.6,2.3,0.4,3.1-0.5c1.2-1.5,1.2-3.6,0-5.1
	c-0.4-0.5-1.1-0.6-1.6-0.3c0,0-0.1,0-0.1,0.1c-0.2,0.2-0.5,0.4-0.7,0.3s-0.5-0.3-0.8-0.4c0.2-0.2,0.3-0.5,0.6-0.6
	c0.1-0.1,0.3,0,0.5,0c1.6,0,2.4-0.4,2.7-1.7c0.4-1.4-0.1-3-1.4-3.8C224.5,148.8,224.3,148.7,223.8,148.5z"/>
<path d="M126.9,212.9c-1.5-0.1-3.1,0-4.6,0.1c-0.6,0.1-1.1,0.7-1.7,1.1c0.2-0.8,0.4-1.8,0.6-2.6h6.7c-1.1,2.8-2.1,5.3-3.1,7.9
	c-0.5,1.3-1,2.6-1.6,3.9c-0.2,0.5-0.5,1.1-1.2,0.7s-0.4-0.9-0.1-1.4C123.5,219.4,125.1,216.2,126.9,212.9z"/>
<path d="M116.2,91.8c0.1-0.1-0.3-0.1-0.8-0.2c1-0.4,1.8-0.8,2.8-1.2v9.7c0,1.2,0.1,2.3,1.5,3h-4.5c1.6-0.6,1.5-1.9,1-3.2V91.8z"/>
<path d="M123.6,91.9c-0.4-0.1-0.8-0.1-1.3-0.2c1-0.4,1.8-0.8,3.2-1.2v9.7c-0.5,1.2-0.4,2.3,1,2.8h-4.6c1.6-0.3,1.6-1.5,1.6-2.7
	C123.6,97.5,123.6,94.7,123.6,91.9z"/>
<path d="M93.5,131.3h-4.7c1.7-0.1,1.6-1.5,1.6-2.7v-8.3c-0.5,0-0.9-0.1-1.4-0.1c1-0.4,1.9-0.8,3.4-1.3V129
	C92,130.2,92.1,131.2,93.5,131.3z"/>
<path d="M190,89c-0.4-0.1-0.8-0.1-1.3-0.2c1-0.4,2-0.8,3.3-1.2v10.1c-0.2,1,0,2,1.1,2.3h-3.6c0.5-0.7,0.6-1.5,0.5-2.3V89z"/>
<path d="M151.6,82.9c-0.5-0.1-1-0.1-1.6-0.2c0.5-0.1,1.1-0.3,1.6-0.5s1-0.5,1.4-0.8v10.3c0,1.3,0.2,1.6,1.4,2.3h-3.8
	c0.4-0.5,0.7-1.2,0.8-1.8C151.6,89.1,151.6,86,151.6,82.9z"/>
<path d="M158.5,221.6c-1,1.3-1.5,3-1.3,4.6c0,1.3,0.6,2.5,1.7,3.3l-0.3,0.3c-0.7-0.4-1.3-0.9-1.9-1.5c-2.3-3-0.7-9.5,2.8-11.1
	c-0.5,0.7-1,1.4-1.4,2.2c-0.4,0.9-0.7,1.9-0.9,2.9C157.8,222,158.1,221.8,158.5,221.6L158.5,221.6z"/>
<path d="M99.7,131.6c-0.5-0.3-1.2-0.4-1.6-0.9c-2.8-3.2-2.8-8,0.1-11.1c0.5-0.6,1.2-1.3,2.2-0.8l0,0c-1.3-0.1-1.8,0.9-2.2,1.9
	c-0.8,2.3-0.9,4.7-0.5,7.1C97.9,129.3,98.6,130.7,99.7,131.6z"/>
<path d="M100.4,118.9c1.9,0.4,2.5,2,3,3.5c1,2.7,0.6,5.8-1.3,8.1c-0.5,0.7-1.2,1.5-2.4,1.1l0,0c0.6-0.4,1.2-0.8,1.7-1.3
	c0.5-0.9,0.8-1.8,0.9-2.8C102.7,124.4,102.6,121.4,100.4,118.9L100.4,118.9z"/>
<path d="M159,221.7c2.4-0.3,3.8,0.4,4.5,2.1c0.8,1.8,0.3,3.8-1.1,5.1c-0.5,0.4-1.1,0.6-1.7,0.8c1.6-1.4,2.2-3.7,1.6-5.7
	C161.9,222.2,161.3,221.9,159,221.7L159,221.7z"/>
<path d="M161.7,87.1c-0.8,0.6-2,0.4-2.6-0.4c-0.2-0.2-0.3-0.4-0.3-0.7c-0.6-1.4,0-3.1,1.4-3.7c0.1,0,0.2-0.1,0.3-0.1
	C158.7,84.4,159.1,86.1,161.7,87.1z"/>
<path d="M223.1,148.6c-1.5,1.2-1.5,2-0.3,3.4c-1.1,0.2-1.6,0-1.8-0.9C220.7,150,221.6,149,223.1,148.6z"/>
<path d="M87.7,165.3c-0.8-0.2-1.5-0.4-2.2-0.7c-0.3-0.1-0.4-0.6-0.4-1c0-0.1,0.4-0.5,0.5-0.4c0.3,0.1,0.7,0.3,0.9,0.6
	C86.8,164.2,87.2,164.7,87.7,165.3z"/>
<path d="M160.8,216.6c0.8,0.2,1.5,0.5,2.2,0.9c0.2,0.1,0,0.7,0.1,1.1c-0.4-0.1-0.7-0.2-1-0.4C161.6,217.8,161.2,217.2,160.8,216.6z"
	/>
<path d="M211.8,128c1.7-2.2,3.5-4.3,5-6.5c0.6-0.9,0.9-1.9,1-3c0.2-1.5-0.9-3-2.4-3.2c-0.1,0-0.2,0-0.4,0c1.9-0.5,3.8,0.6,4.3,2.5
	c0.2,0.8,0.1,1.7-0.2,2.5c-0.8,1.4-1.8,2.7-3,3.8c-0.8,0.8-1.7,1.5-2.6,2.2c2.6,0.7,4.7,0.3,5.7-1c0,0,0.1,0.1,0,0.1
	c-0.4,2.6-0.4,2.6-3,2.6H211.8z"/>
<path d="M215.1,120.1c-0.8,0.6-2,0.4-2.6-0.4c-0.2-0.2-0.3-0.4-0.3-0.7c-0.6-1.4,0-3.1,1.4-3.7c0.1,0,0.2-0.1,0.3-0.1
	C212.1,117.5,212.6,119.1,215.1,120.1z"/>
<path d="M133.2,157.5c-2.7-0.1-5.5,0.3-8.1,1.2c-2.9,0.7-6,0.5-8.8-0.5c0.6,3.8,3.1,6,8.4,3.6c-1.8,2.1-5.1,2.4-7.2,0.5
	c-0.2-0.2-0.4-0.3-0.5-0.5c-0.2-0.3-0.6-0.5-1-0.6c-2.1,0.4-4.1-0.9-4.5-3c-0.2-0.9,0-1.9,0.4-2.7v-0.1c-1.2-1.1-3-1.3-4.5-0.7
	c-1,0.4-1.6,1.4-1.5,2.5c0,1.4,0.8,2.3,2.3,2.9c-1.3,0.1-2.4-0.8-2.6-2.1c-0.5-1.5,0.2-3.1,1.5-3.8c1.5-0.7,3.2-0.6,4.6,0.1
	c0.5,0.3,1.2,0.3,1.7,0s1.1-0.4,1.7-0.4c-0.6,0.4-1.2,0.8-2,1.3c1.9,1.8,4.3,2.9,6.8,3.2c2.1,0.4,4.2,0.2,6.2-0.4
	C128.4,157.1,130.9,157,133.2,157.5z M112.5,155.9c-0.7,1.1-0.6,2.4,0.2,3.4c0.8,1.1,2.1,1.7,3.5,1.5c-0.1-0.8-0.2-1.4-0.3-2.1
	c-0.1-0.3-0.1-0.7-0.3-0.8C114.6,157.2,113.6,156.6,112.5,155.9z"/>
<path d="M133.3,149c-0.5-0.2-1-0.5-1.4-0.4c-0.8,0.1-1.6,0.4-2.2,0.9c-0.3,0.3-0.2,1.2-0.3,1.8h0.3c-0.1-1.4,0.3-2,1.4-2.2
	c1.2-0.2,2.3,0.5,2.6,1.7c0,0.1,0,0.2,0,0.2c0.2,1.1-0.6,2.1-1.7,2.3c-0.1,0-0.3,0-0.4,0c-1.8,0-3.5-0.7-4.7-2
	c-1.5-1.8-4.1-2.3-6.2-1.2c3-0.6,4.9,0.5,6.6,2.4c1.3,1.3,3.1,1.8,4.9,1.5c1.3,0,2.3-1,2.3-2.3c0-0.1,0-0.1,0-0.2
	c0-0.7-0.3-1.3-0.6-1.9C133.6,149.3,133.5,149.1,133.3,149z"/>
<path d="M129.8,162.2c-0.2,1.8,0.2,2.5,1.4,2.6c1.2,0.2,2.3-0.6,2.5-1.8c0.2-1.1-0.5-2.1-1.5-2.4c-0.1,0-0.1,0-0.2,0
	c-1.8-0.2-3.7,0.5-4.9,1.9c-1.2,1.4-3,2.1-4.8,1.9c-0.4,0-0.8-0.2-1.2-0.4c2.3,0.3,4.7-0.6,6.1-2.5c1.3-1.5,3.2-1.8,5.2-1.6
	c1.1,0.1,1.9,0.9,2.1,2c0.2,1.2-0.3,2.4-1.3,3c-0.9,0.6-2.1,0.6-3-0.1C129.2,164.2,129.2,163.3,129.8,162.2z"/>
<path d="M124.8,152.6c-5.9-1.7-7.6-0.9-8.8,3.8c-0.6-1.7,0.9-4.2,2.3-5C120.1,150.3,122.9,150.9,124.8,152.6z"/>
<path d="M129,152.8c-0.5-0.5-1-1-1.3-1.6c-1.3-2.2-1.8-2.6-4.1-3c1.8-0.8,3.7,0.1,4.5,2.2c0.3,0.8,0.7,1.5,1,2.2
	C129.1,152.7,129.1,152.7,129,152.8z"/>
<path d="M129.2,161c-0.3,0.6-0.6,1.2-0.8,1.9c-0.8,2.2-2.7,3.1-4.7,2.2c2.3,0.1,3.5-1.2,4.4-3.1c0.2-0.5,0.7-0.8,1-1.2
	C129.1,160.9,129.1,161,129.2,161z"/>
<path d="M154.1,202.3c-1,1.3-1.2,3.2-0.5,4.7c0.4,1.1,1.5,1.7,2.6,1.5c1.4-0.1,2.5-1.1,2.7-2.4c0.2,1.3-0.3,2.1-1.7,2.7
	c-1.4,0.7-3,0.2-3.9-1c-0.9-1.5-0.9-3.4-0.1-4.9c0.4-0.6,0.3-1.3-0.1-1.8c-0.3-0.5-0.4-1.1-0.4-1.7c0.4,0.7,0.9,1.4,1.3,2.2
	c2-2.2,3.2-5,3.3-8c0-1.8-0.2-3.5-0.6-5.2c-0.5-2.3-0.7-4.7-0.4-7c-0.2,2.9,0.7,5.7,1.4,8.4c0.6,2.8,0.4,5.7-0.7,8.4
	c1.6-0.1,3.1-0.9,4-2.2c1.5-2.2,0.3-4.3-0.4-6.3c2.4,1.7,2.4,5.9,0,7.8c-0.3,0.2-0.6,0.7-0.5,1c0.3,1.4-0.3,2.9-1.5,3.8
	c-1.2,0.9-2.8,1.1-4.1,0.4C154.5,202.4,154.4,202.4,154.1,202.3z M159.7,197.9c-1,0-2,0.3-2.9,0.7c-0.8,0.9-1.5,2-2.1,3.1
	c1.1,0.5,2.4,0.5,3.4-0.2C159.3,200.7,160,199.3,159.7,197.9L159.7,197.9z"/>
<path d="M150.1,184.8c-0.9,0.2-1.8-0.3-2-1.2c-0.4-1.2,0-2.5,1-3.3c1.2-0.9,2.8-0.6,3.7,0.5c0.3,0.4,0.5,1,0.5,1.5
	c0.3,1.9-0.4,3.9-1.9,5.2c-1.9,1.5-2.7,4-2,6.3c-1.2-2.1-0.7-4.7,1.1-6.3c1.4-1.2,2.2-3,2.1-4.9c0.1-1.1-0.7-2.1-1.8-2.2
	c-0.6-0.1-1.3,0.2-1.7,0.7c-0.7,0.5-1,1.5-0.6,2.3C149,184,149.5,184.4,150.1,184.8z"/>
<path d="M161.5,184.5c1.4,0.2,2-0.2,2.3-1.4c0.1-1.2-0.6-2.2-1.7-2.6c-1-0.3-2.1,0.4-2.4,1.4c-0.3,1.5,0,3,0.9,4.2
	c0.4,0.5,0.8,1,1.3,1.4c1.5,1.6,1.9,4,1,6c0-0.3,0.1-0.7,0.1-1c0.3-1.8-0.4-3.6-1.8-4.7c-1.7-1.3-2.5-3.4-2.3-5.5
	c0-1.1,0.7-2.1,1.7-2.4c1.4-0.5,3.1,0.2,3.6,1.6c0.2,0.6,0.2,1.3,0,2c-0.2,0.9-1.2,1.5-2.1,1.3C161.9,184.7,161.7,184.6,161.5,184.5
	z"/>
<path d="M155,198.2c-2,0.3-4-0.8-4.9-2.6c-1-2.3-0.1-4.3,1.3-6.1c-0.5,1.8-1.5,3.5-0.7,5.5S153.1,197.7,155,198.2z"/>
<path d="M151.7,185.3c-0.5,0.5-1.1,0.9-1.7,1.3c-1.7,0.7-2.8,2.4-2.8,4.2c-0.9-1.8,0-3.7,2-4.5c0.8-0.3,1.6-0.7,2.3-1.1
	C151.6,185.2,151.6,185.2,151.7,185.3z"/>
<path d="M165.1,190.5c-0.2-1.8-1.4-3.4-3.1-4c-0.5-0.3-0.9-0.7-1.2-1.2c0.7,0.3,1.4,0.6,2.1,0.9c1.8,0.5,2.8,2.4,2.2,4.2
	C165.2,190.4,165.2,190.5,165.1,190.5z"/>
<path d="M161,127.7c2.5-6-0.3-8-3.5-8.5c0.2,1.2,0.5,2.3,0.7,3.5c0.3,2.1,0.2,4.3-0.5,6.4c-0.6,2.2-0.9,4.5-1.2,6.2
	c-0.2-2.3,0-4.7,0.7-6.9c1.1-4.1,0.2-8.5-2.4-11.9c-0.1-0.2-0.2-0.5-0.3-0.7c-0.1,0-0.3,0.1-0.4,0.1l-1.2,2.1c0-0.3-0.1-0.6,0-0.7
	c0.9-1.3,0.7-2.6,0.2-4.1c-0.2-0.9-0.2-1.7,0-2.6c0.1-1.3,1.1-2.3,2.4-2.5c1.3-0.3,2.6,0.2,3.4,1.3c0.2,0.5,0.4,1,0.4,1.6
	c-0.2-1.3-1.2-2.3-2.5-2.4c-1.1-0.2-2.3,0.3-2.9,1.3c-0.7,1.5-0.5,3.2,0.4,4.6c1.1-0.2,2.3-0.2,3.4-0.1c1.9,0.5,3.1,2.4,2.8,4.3
	c0,0.4,0.1,0.7,0.3,1C163.1,121.9,163.4,124.8,161,127.7z M155,115.4c1.9,3.2,1.9,3.2,4.9,3.7c0.1-1.3-0.4-2.6-1.4-3.4
	C157.5,114.8,156.1,114.7,155,115.4z"/>
<path d="M162.3,132.4c0.8-0.3,1.7,0.1,2,0.9l0,0c0.5,0.9,0.4,2.1-0.3,2.9c-0.6,0.9-1.8,1.3-2.8,1c-1.1-0.2-1.9-1-2-2.1
	c-0.4-1.8,0.2-3.8,1.5-5.1c2-1.8,3.1-3.7,2.5-6.5c1,2.1,0.5,4.7-1.3,6.2c-1.4,1.2-2.1,3-2,4.8c-0.1,0.9,0.5,1.7,1.4,1.8
	c0.8,0.1,1.5-0.1,2.1-0.6c0.4-0.7,0.6-1.5,0.4-2.3C163.7,133.1,162.8,132.8,162.3,132.4z"/>
<path d="M151.3,132.8c-1.6-0.4-2.3,0-2.5,1.2s0.6,2.4,1.8,2.7c1.1,0.2,2.1-0.6,2.3-1.7c0-0.1,0-0.2,0-0.3c0.2-1.8-0.6-3.5-1.9-4.7
	c-1.7-1.4-2.4-3.8-1.5-5.9c-0.4,2.6,0.7,4.4,2.6,6.1c1.4,1.4,1.9,3.3,1.5,5.2c-0.2,1.1-1.1,1.9-2.2,2.1c-1.2,0.1-2.3-0.5-2.8-1.5
	c-0.6-1-0.4-2.2,0.3-3C149.6,131.9,150.4,131.9,151.3,132.8z"/>
<path d="M155.4,118.9c-4.8,1.7-5.7,3.6-3.6,8.8c-1.6-1.7-2.2-4.4-1.3-6.1C151.4,119.7,153.3,118.6,155.4,118.9z"/>
<path d="M151.6,131.8c-0.7-0.3-1.3-0.5-1.9-0.8c-2.1-0.9-2.9-2.5-2.1-4.5C147.1,129.6,150.1,130.1,151.6,131.8z"/>
<path d="M160.7,131.6c0.4-0.3,0.9-0.6,1.4-0.8c2.5-1.5,2.5-1.5,3.4-4.1c0.5,1.3,0.1,2.8-1.1,3.6c-1.1,0.7-2.2,1.3-3.3,1.8
	C161,131.9,160.8,131.7,160.7,131.6z"/>
<path d="M179.2,156.5c2.1-0.4,4.8,0.1,7.5,0.8c4.4,1.1,8.4,0,12.2-3c-0.7-0.4-1.4-0.9-2.1-1.4v-0.2c0.6,0.1,1.2,0.4,1.8,0.7
	c0.4,0.4,1.1,0.4,1.5,0c1.4-0.7,3-0.8,4.4-0.3c1.3,0.5,2.2,1.8,2,3.2c-0.1,1.5-1.3,2.8-2.8,2.9c0.5-0.3,1-0.5,1.4-0.8
	c0.8-0.8,1.1-2,0.8-3.1s-1.3-1.8-2.4-1.8c-1.3-0.3-2.6,0-3.6,0.9c1.2,3,0,5.5-2.9,5.9c-0.4-0.1-0.7-0.1-1.1,0
	c-0.3,0-0.6,0.1-0.8,0.2c-2.5,2.6-4.7,2.8-7.7,0.8c-0.1,0-0.1-0.1,0,0.1c1.6,0.1,3.4,0.6,5.1,0.2c1.9-0.4,2.6-2.3,3.1-4.2
	c-1.5,0.4-3,0.6-4.6,0.7c-1.7,0-3.5-0.2-5.2-0.5C183.4,157.3,180.9,156.8,179.2,156.5z M196.1,160c1.3,0.1,2.6-0.5,3.3-1.6
	c0.7-1,0.8-2.4,0.1-3.4C198,156.4,195.4,156.9,196.1,160z"/>
<path d="M182.6,162c0.4,0.7,0.2,1.6-0.5,2c0,0-0.1,0-0.1,0.1c-1,0.6-2.3,0.6-3.2-0.2c-0.9-0.7-1.2-1.8-0.9-2.9
	c0.2-1.2,1.2-2,2.4-1.9c1.8-0.2,3.6,0.5,4.9,1.7c2.5,2.4,2.6,2.4,6,2.4c-2,0.9-4.3,0.4-5.7-1.2c-1.2-1.5-3.1-2.3-5-2.2
	c-1.1,0-2.1,0.9-2.1,2c0,0.1,0,0.1,0,0.2c0.2,1.2,1.3,2.1,2.6,2C182.1,163.9,182.6,163.2,182.6,162z"/>
<path d="M185.4,150.9c-1.2,1.4-3,2.2-4.9,2.1c-1.2,0-2.1-0.9-2.2-2c0-1.2,0.9-2.1,2-2.2c0.1,0,0.3,0,0.4,0c1.1,0.1,1.5,0.6,1.6,2.3
	c0.4-1.6,0.1-2.3-1-2.7c-0.8-0.3-1.7-0.2-2.4,0.2c-0.1,0.1-0.2,0.2-0.3,0.4c-0.3,0.4-0.6,0.7-0.9,1.1c-0.2,0.7-0.2,1.4,0.1,2
	c0.4,1,1.3,1.6,2.4,1.6c2,0.2,4-0.7,5.3-2.2c1.2-1.4,3-2.1,4.8-1.9h0.9C189.3,148.7,186.9,149.2,185.4,150.9z"/>
<path d="M187.2,151.9c2-1.8,4.6-2.3,6.4-1.5c1.8,1,2.8,2.9,2.7,4.9C194.1,149.6,191.5,150.3,187.2,151.9z"/>
<path d="M188.7,165.3c-1.7,0.9-3.7,0-4.5-2c-0.3-0.7-0.6-1.5-0.9-2.4c0.4,0.4,0.8,0.8,1.1,1.2C185.6,164.5,186,164.9,188.7,165.3z"
	/>
<path d="M183.1,151.8c0.3-0.7,0.7-1.5,1-2.2c0.5-1.7,2.4-2.7,4.1-2.2c0.2,0.1,0.3,0.1,0.5,0.2c-1.9-0.1-3.7,1.1-4.3,2.9
	c-0.3,0.5-0.7,1-1.2,1.5C183.2,151.9,183.2,151.8,183.1,151.8z"/>
<path d="M190.8,205.5c0.3,4.9,3.5,5,5,7.6c0.6,1,0.9,2.3,1,3.5c0.2,2.2-1,3.5-2.8,3.7c3.1,0.7,5.3-2.3,4.1-5.8
	c-0.6-1.7-1.9-3.1-3-4.5c-0.7-1-1.7-1.7-2.6-2.6c2.6-0.8,4.7-0.3,5.7,1.2c0,0,0.1-0.1,0-0.1c-0.4-3-0.4-3-3-3
	C193.8,205.5,192.3,205.5,190.8,205.5z"/>
<path d="M196.5,218.8c-0.4,1.4-1.4,2-2.8,1.5c-1.6-0.6-2.4-2.3-1.7-3.8C192.6,219.5,194.2,221,196.5,218.8z"/>
</svg>
